<svg xmlns="http://www.w3.org/2000/svg" viewBox="0 0 500 500" fill="currentColor"><g id="freepik--background-complete--inject-70"><path d="M274.41,16.78a9.62,9.62,0,0,1,1,1.36,13.39,13.39,0,0,1,1.82,4.52,15.53,15.53,0,0,1-.28,7.68,13.71,13.71,0,0,1-6.14,8,15.7,15.7,0,0,1-12.12,1.68,12,12,0,0,1-5.95-3.59,9.13,9.13,0,0,1-1.83-3.23,5.74,5.74,0,0,1,.16-3.85,6.54,6.54,0,0,1,6.68-3.59,11.66,11.66,0,0,1,7.14,3.78,16.34,16.34,0,0,1,3.74,16,16.12,16.12,0,0,1-12.56,10.53,13.82,13.82,0,0,1-8-.92,8.56,8.56,0,0,1-3.18-2.44A6.59,6.59,0,0,1,243.5,49a5.33,5.33,0,0,1,1.08-3.7,5.54,5.54,0,0,1,3.23-1.9,8.32,8.32,0,0,1,6.72,1.69,11.07,11.07,0,0,1,3.72,5.33,11.44,11.44,0,0,1,.2,6A16.2,16.2,0,0,1,253,65a24.17,24.17,0,0,1-6.66,3.87,31.36,31.36,0,0,1-6.3,1.82,2.29,2.29,0,0,1,.41-.14l1.21-.35a44.48,44.48,0,0,0,4.57-1.6,24.33,24.33,0,0,0,6.5-3.92,15.83,15.83,0,0,0,5.18-8.38,10.84,10.84,0,0,0-.23-5.69,10.49,10.49,0,0,0-3.54-5,7.68,7.68,0,0,0-6.2-1.54,4.85,4.85,0,0,0-2.84,1.68,4.69,4.69,0,0,0-.92,3.23,6,6,0,0,0,1.25,3.28,8,8,0,0,0,2.92,2.23,13.19,13.19,0,0,0,7.61.84,15.39,15.39,0,0,0,12-10,15.64,15.64,0,0,0-3.56-15.23,11,11,0,0,0-6.66-3.57,5.83,5.83,0,0,0-6,3.15,5,5,0,0,0-.14,3.38,8.28,8.28,0,0,0,1.67,3,11.38,11.38,0,0,0,5.62,3.43,15.14,15.14,0,0,0,11.67-1.54,13.34,13.34,0,0,0,6-7.69,15.48,15.48,0,0,0,.39-7.51,14.14,14.14,0,0,0-1.66-4.49C274.74,17.27,274.37,16.81,274.41,16.78Z" style="fill:#e0e0e0"></path><path d="M183.53,432.51a9.62,9.62,0,0,1,1,1.36,13.32,13.32,0,0,1,1.82,4.51,15.57,15.57,0,0,1-.28,7.69,13.66,13.66,0,0,1-6.14,8,15.65,15.65,0,0,1-12.12,1.69,11.92,11.92,0,0,1-6-3.6,8.86,8.86,0,0,1-1.83-3.22,5.68,5.68,0,0,1,.16-3.85,6.55,6.55,0,0,1,6.68-3.6,11.76,11.76,0,0,1,7.14,3.78,16.36,16.36,0,0,1,3.74,16,16.12,16.12,0,0,1-12.56,10.53,13.82,13.82,0,0,1-8-.92,8.59,8.59,0,0,1-3.18-2.44,6.68,6.68,0,0,1-1.39-3.68,5.39,5.39,0,0,1,1.09-3.7,5.51,5.51,0,0,1,3.23-1.9,8.3,8.3,0,0,1,6.72,1.69,11.16,11.16,0,0,1,3.72,5.32,11.38,11.38,0,0,1,.19,6,16.13,16.13,0,0,1-5.43,8.58,24.17,24.17,0,0,1-6.66,3.87,31.56,31.56,0,0,1-6.3,1.82,2,2,0,0,1,.41-.14l1.21-.35a44.48,44.48,0,0,0,4.57-1.6,24.59,24.59,0,0,0,6.5-3.92,15.83,15.83,0,0,0,5.18-8.38,10.84,10.84,0,0,0-.23-5.69,10.51,10.51,0,0,0-3.54-5,7.67,7.67,0,0,0-6.2-1.53,4.88,4.88,0,0,0-2.84,1.67,4.71,4.71,0,0,0-.92,3.24,5.93,5.93,0,0,0,1.25,3.28,7.86,7.86,0,0,0,2.92,2.22,13.19,13.19,0,0,0,7.61.85,15.39,15.39,0,0,0,12-10,15.62,15.62,0,0,0-3.56-15.22,11,11,0,0,0-6.66-3.58,5.86,5.86,0,0,0-6,3.15,5,5,0,0,0-.14,3.38,8.32,8.32,0,0,0,1.67,3,11.45,11.45,0,0,0,5.62,3.43,15.19,15.19,0,0,0,11.67-1.54,13.28,13.28,0,0,0,6-7.69,15.38,15.38,0,0,0,.4-7.51,14,14,0,0,0-1.66-4.49C183.86,433,183.49,432.54,183.53,432.51Z" style="fill:#e0e0e0"></path><path d="M34.52,105.09a9.23,9.23,0,0,1,1.67-.27,13.09,13.09,0,0,1,4.85.47,15.57,15.57,0,0,1,6.69,3.8A13.65,13.65,0,0,1,52,118.24a15.69,15.69,0,0,1-4.1,11.52A12,12,0,0,1,42,133.38a8.89,8.89,0,0,1-3.71.13,5.62,5.62,0,0,1-3.33-1.91,6.55,6.55,0,0,1-.11-7.59,11.68,11.68,0,0,1,6.65-4.58,16.32,16.32,0,0,1,15.89,4,16.13,16.13,0,0,1,3.55,16,13.9,13.9,0,0,1-4.53,6.7,8.59,8.59,0,0,1-3.63,1.69,6.66,6.66,0,0,1-3.9-.47,5.37,5.37,0,0,1-2.78-2.67,5.55,5.55,0,0,1-.2-3.74,8.33,8.33,0,0,1,4.6-5.19,11.17,11.17,0,0,1,6.45-.84,11.56,11.56,0,0,1,5.4,2.6,16.17,16.17,0,0,1,5.1,8.78,24.16,24.16,0,0,1,.36,7.7,31.72,31.72,0,0,1-1.29,6.43,1.52,1.52,0,0,1,.06-.43c.06-.32.15-.73.25-1.24a47,47,0,0,0,.69-4.79,24.1,24.1,0,0,0-.48-7.58A15.82,15.82,0,0,0,62,138a11,11,0,0,0-5.16-2.43,10.49,10.49,0,0,0-6.08.83,7.7,7.7,0,0,0-4.23,4.79,4.83,4.83,0,0,0,.18,3.29,4.71,4.71,0,0,0,2.44,2.31,6,6,0,0,0,3.49.41,7.82,7.82,0,0,0,3.32-1.57,13,13,0,0,0,4.26-6.35A15.37,15.37,0,0,0,56.82,124a15.59,15.59,0,0,0-15.14-3.88,11,11,0,0,0-6.25,4.26,5.86,5.86,0,0,0,0,6.75,5,5,0,0,0,2.94,1.69,8.38,8.38,0,0,0,3.42-.1,11.28,11.28,0,0,0,5.63-3.41,15.1,15.1,0,0,0,4-11.06,13.18,13.18,0,0,0-4-8.88A15.41,15.41,0,0,0,41,105.57a13.93,13.93,0,0,0-4.76-.6C35.1,105,34.52,105.14,34.52,105.09Z" style="fill:#e0e0e0"></path><path d="M413.62,211a9.13,9.13,0,0,1-1.25-1.1,13.34,13.34,0,0,1-2.64-4,15.3,15.3,0,0,1-1.26-7.42,13.38,13.38,0,0,1,4.3-8.91,15.3,15.3,0,0,1,11.28-4,11.69,11.69,0,0,1,6.42,2.27,8.76,8.76,0,0,1,2.39,2.73,5.48,5.48,0,0,1,.61,3.72,6.4,6.4,0,0,1-5.69,4.77,11.53,11.53,0,0,1-7.59-2.21,16,16,0,0,1-6.75-14.57,15.77,15.77,0,0,1,9.95-12.59,13.59,13.59,0,0,1,7.88-.71,8.43,8.43,0,0,1,3.53,1.71,6.5,6.5,0,0,1,2.06,3.26,5.26,5.26,0,0,1-.31,3.76,5.4,5.4,0,0,1-2.71,2.46,8.16,8.16,0,0,1-6.78-.29,10.8,10.8,0,0,1-4.62-4.37,11.07,11.07,0,0,1-1.38-5.7,15.77,15.77,0,0,1,3.51-9.3,23.54,23.54,0,0,1,5.62-5,31,31,0,0,1,5.67-3,1.78,1.78,0,0,1-.36.22l-1.09.57a42.39,42.39,0,0,0-4.06,2.44,23.74,23.74,0,0,0-5.46,5.05,15.58,15.58,0,0,0-3.31,9.06,10.7,10.7,0,0,0,1.35,5.41,10.37,10.37,0,0,0,4.39,4.1,7.53,7.53,0,0,0,6.25.24,4.71,4.71,0,0,0,2.39-2.16,4.65,4.65,0,0,0,.24-3.29,5.86,5.86,0,0,0-1.85-2.9,7.81,7.81,0,0,0-3.24-1.55,12.88,12.88,0,0,0-7.46.7,15,15,0,0,0-9.47,12,15.29,15.29,0,0,0,6.42,13.89,10.75,10.75,0,0,0,7.1,2.1,5.7,5.7,0,0,0,5.1-4.2,4.84,4.84,0,0,0-.53-3.27,8.21,8.21,0,0,0-2.2-2.53,11.17,11.17,0,0,0-6.06-2.17A14.8,14.8,0,0,0,413.13,190a13,13,0,0,0-4.24,8.56,15.19,15.19,0,0,0,1.1,7.28,13.5,13.5,0,0,0,2.49,4C413.2,210.64,413.65,211,413.62,211Z" style="fill:#e0e0e0"></path><path d="M428.77,117.73s-2.1-8.87-9.75-7.6l1.64-5.72s12.73,2.08,11.25,11.19Z" style="fill:#ebebeb"></path><path d="M398,476.71s-2.1-8.87-9.75-7.59l1.64-5.72s12.72,2.08,11.25,11.19Z" style="fill:#ebebeb"></path><path d="M75.52,455.52s-8.13,4.11-5.11,11.26l-5.94-.26s-.95-12.86,8.25-13.55Z" style="fill:#ebebeb"></path><path d="M224.63,466.09s7,5.88,12.35.3l2.09,5.57s-11.46,5.91-15.7-2.29Z" style="fill:#ebebeb"></path><path d="M468.2,310.42s-2.1-8.87-9.75-7.6l1.63-5.72s12.73,2.08,11.26,11.19Z" style="fill:#f5f5f5"></path><path d="M159.06,45.81s.6-9.09-7.09-10.12l3.24-5s11.56,5.72,7.48,14Z" style="fill:#ebebeb"></path><path d="M100.06,21.37A2.34,2.34,0,1,1,97.72,19,2.34,2.34,0,0,1,100.06,21.37Z" style="fill:#ebebeb"></path><path d="M315.34,41.4A2.34,2.34,0,1,1,313,39.06,2.35,2.35,0,0,1,315.34,41.4Z" style="fill:#ebebeb"></path><path d="M467,97.38A2.34,2.34,0,1,1,464.62,95,2.34,2.34,0,0,1,467,97.38Z" style="fill:#ebebeb"></path><path d="M457.05,447.82a2.35,2.35,0,1,1-2.35-2.34A2.35,2.35,0,0,1,457.05,447.82Z" style="fill:#ebebeb"></path><path d="M338.2,474a2.35,2.35,0,1,1-2.35-2.34A2.35,2.35,0,0,1,338.2,474Z" style="fill:#ebebeb"></path><path d="M414.72,255.37a2.34,2.34,0,1,1-2.34-2.34A2.34,2.34,0,0,1,414.72,255.37Z" style="fill:#ebebeb"></path><path d="M83.8,112.7a2.35,2.35,0,1,1-2.34-2.34A2.34,2.34,0,0,1,83.8,112.7Z" style="fill:#ebebeb"></path><path d="M30.51,286.65a2.35,2.35,0,1,1-2.34-2.35A2.34,2.34,0,0,1,30.51,286.65Z" style="fill:#ebebeb"></path></g><g id="freepik--Plants--inject-70"><path d="M413.91,407.25a28.6,28.6,0,0,1-.12,17.6c-4.32-3.64-9.21-9.74-10.71-15.19a27.38,27.38,0,0,1,.42-16.42A28.17,28.17,0,0,1,413.91,407.25Z" style="fill:#455a64"></path><path d="M411.46,416.32a6.14,6.14,0,0,0-.11-1c-.09-.61-.25-1.5-.48-2.58a67,67,0,0,0-2.31-8.37,69.33,69.33,0,0,0-3.34-8c-.49-1-.91-1.79-1.22-2.33a6.81,6.81,0,0,0-.5-.83,5,5,0,0,0,.39.89c.27.55.66,1.36,1.13,2.37.93,2,2.13,4.82,3.24,8a84.57,84.57,0,0,1,2.39,8.31c.26,1.07.45,1.95.58,2.56A5.92,5.92,0,0,0,411.46,416.32Z" style="fill:#263238"></path><path d="M439.44,412.21a28.71,28.71,0,0,1-.12,17.61c-4.33-3.65-9.22-9.74-10.72-15.2a28.35,28.35,0,0,1,.56-16.71A28.72,28.72,0,0,1,439.44,412.21Z" style="fill:#455a64"></path><path d="M437,421.29a5.91,5.91,0,0,0-.11-1c-.09-.62-.25-1.5-.48-2.59a70.54,70.54,0,0,0-2.31-8.36,69.58,69.58,0,0,0-3.34-8c-.5-1-.92-1.79-1.22-2.33a5.41,5.41,0,0,0-.51-.82,5.61,5.61,0,0,0,.39.88c.28.56.67,1.37,1.13,2.37.93,2,2.14,4.83,3.24,8s1.89,6.15,2.4,8.31c.25,1.08.44,2,.57,2.56A5.47,5.47,0,0,0,437,421.29Z" style="fill:#263238"></path><path d="M454.29,394.94a28.56,28.56,0,0,0,9.46-14.85c-5.61.71-13,3.18-17.24,7a28.29,28.29,0,0,0-8.61,14.33A28.68,28.68,0,0,0,454.29,394.94Z" style="fill:#455a64"></path><path d="M457.17,386a6.63,6.63,0,0,1-.62.75c-.41.46-1,1.12-1.8,1.91a69.89,69.89,0,0,1-6.49,5.77,68.8,68.8,0,0,1-7.15,4.91c-1,.57-1.74,1-2.29,1.3a5.39,5.39,0,0,1-.87.42,4.91,4.91,0,0,1,.8-.53c.54-.32,1.3-.79,2.24-1.38,1.87-1.18,4.41-2.89,7.07-5s4.93-4.14,6.53-5.68l1.87-1.84A5.57,5.57,0,0,1,457.17,386Z" style="fill:#263238"></path><path d="M429.66,388.24a28.62,28.62,0,0,0,9.46-14.85c-5.61.71-13,3.18-17.25,6.95a28.43,28.43,0,0,0-8.61,14.33A28.61,28.61,0,0,0,429.66,388.24Z" style="fill:#455a64"></path><path d="M432.53,379.29a4.84,4.84,0,0,1-.61.75c-.41.46-1,1.12-1.81,1.91a69.59,69.59,0,0,1-6.48,5.77,71.85,71.85,0,0,1-7.16,4.92c-1,.56-1.74,1-2.29,1.29a5.39,5.39,0,0,1-.87.42,5.42,5.42,0,0,1,.81-.53c.53-.32,1.3-.79,2.23-1.38A82.72,82.72,0,0,0,430,381.79c.8-.77,1.44-1.4,1.88-1.84A6.06,6.06,0,0,1,432.53,379.29Z" style="fill:#263238"></path><path d="M385.71,394.31a5.14,5.14,0,0,1,.72-.13l2.07-.28,1.5-.2c.55-.06,1.15-.1,1.8-.15,1.29-.1,2.75-.25,4.38-.27l2.56-.08c.88,0,1.81,0,2.77,0,1.91,0,3.95.16,6.1.29a106,106,0,0,1,13.84,2.13,107.23,107.23,0,0,1,13.39,4.07c2,.81,3.91,1.55,5.63,2.38.87.41,1.72.77,2.51,1.18l2.27,1.17c1.46.72,2.72,1.5,3.84,2.14.55.33,1.08.62,1.55.92l1.27.82,1.74,1.16a3.9,3.9,0,0,1,.6.43,4.51,4.51,0,0,1-.64-.36l-1.79-1.08-1.29-.8c-.47-.28-1-.56-1.56-.88-1.13-.62-2.39-1.38-3.86-2.08l-2.27-1.14c-.8-.4-1.65-.75-2.51-1.15-1.73-.82-3.64-1.54-5.63-2.33a100.89,100.89,0,0,0-27.12-6.18c-2.14-.14-4.17-.32-6.08-.33-1,0-1.88-.07-2.76,0l-2.55,0c-1.62,0-3.08.14-4.37.21l-1.8.11-1.5.16-2.08.21A5.7,5.7,0,0,1,385.71,394.31Z" style="fill:#263238"></path><path d="M464.14,409.92a28.55,28.55,0,0,1,11,13.73c-5.66-.1-13.3-1.74-17.91-5a28.45,28.45,0,0,1-10.12-13.3A28.55,28.55,0,0,1,464.14,409.92Z" style="fill:#455a64"></path><path d="M468,418.5a5.64,5.64,0,0,0-.7-.67c-.45-.42-1.14-1-2-1.71a70.1,70.1,0,0,0-7.07-5,71.68,71.68,0,0,0-7.65-4.1c-1-.46-1.84-.81-2.42-1a6.41,6.41,0,0,0-.91-.32,5.23,5.23,0,0,0,.86.44l2.37,1.12c2,1,4.7,2.4,7.58,4.18a84,84,0,0,1,7.1,4.93c.88.68,1.58,1.23,2.06,1.62A5,5,0,0,0,468,418.5Z" style="fill:#263238"></path><path d="M430.35,328.51A32,32,0,0,1,450,329.72c-4.33,4.6-11.43,9.68-17.6,11a31.62,31.62,0,0,1-18.59-1.64A32,32,0,0,1,430.35,328.51Z" style="fill:#455a64"></path><path d="M440.31,331.8a5.73,5.73,0,0,0-1.07.06c-.69.06-1.69.19-2.92.37a78,78,0,0,0-18.6,5.3c-1.14.49-2.05.91-2.67,1.22a7,7,0,0,0-.95.51,7.46,7.46,0,0,0,1-.38c.63-.27,1.56-.66,2.71-1.11a94.43,94.43,0,0,1,18.55-5.29l2.89-.48A7.15,7.15,0,0,0,440.31,331.8Z" style="fill:#263238"></path><path d="M419.91,353.33a28,28,0,0,1,16.26,5.56c-4.72,2.87-11.87,5.51-17.38,5.21a27.69,27.69,0,0,1-15.29-5.68A28,28,0,0,1,419.91,353.33Z" style="fill:#455a64"></path><path d="M427.55,358.41a4.63,4.63,0,0,0-.92-.2c-.6-.11-1.47-.23-2.54-.36a67.49,67.49,0,0,0-8.46-.45,68.54,68.54,0,0,0-8.44.62c-1.08.14-1.94.29-2.54.4a4.68,4.68,0,0,0-.92.22,6.92,6.92,0,0,0,.94-.09c.6-.09,1.47-.19,2.54-.31a81.08,81.08,0,0,1,8.42-.52c3.3,0,6.28.15,8.43.35,1.08.1,1.95.19,2.55.26A5.89,5.89,0,0,0,427.55,358.41Z" style="fill:#263238"></path><path d="M408.49,335.77a28,28,0,0,0-8.73-14.8c-1.86,5.2-3,12.74-1.59,18.07a27.64,27.64,0,0,0,8.64,13.83A28,28,0,0,0,408.49,335.77Z" style="fill:#455a64"></path><path d="M402,329.31a5.9,5.9,0,0,1,.37.87c.23.56.52,1.38.87,2.41a70.23,70.23,0,0,1,2.14,8.19,67.18,67.18,0,0,1,1.11,8.4c.07,1.08.1,2,.11,2.56a4.72,4.72,0,0,1,0,.95,6.86,6.86,0,0,1-.1-.94c0-.6-.11-1.48-.21-2.55A81.41,81.41,0,0,0,403,332.66c-.31-1-.58-1.87-.77-2.44A4.45,4.45,0,0,1,402,329.31Z" style="fill:#263238"></path><path d="M416.2,312.48a27.23,27.23,0,0,0-12-11.76c-.44,5.38.39,12.78,3.07,17.46A27.09,27.09,0,0,0,419,329,27.3,27.3,0,0,0,416.2,312.48Z" style="fill:#455a64"></path><path d="M408.42,308a6.07,6.07,0,0,1,.58.72c.35.48.84,1.18,1.43,2.06a66.27,66.27,0,0,1,7.27,14.83c.34,1,.59,1.83.75,2.4a5.35,5.35,0,0,1,.22.89,5.19,5.19,0,0,1-.34-.86c-.19-.56-.47-1.36-.84-2.35a81.05,81.05,0,0,0-3.24-7.58,82.47,82.47,0,0,0-4-7.21l-1.34-2.11A5.89,5.89,0,0,1,408.42,308Z" style="fill:#263238"></path><path d="M371.56,396.11a1.44,1.44,0,0,1,.18-.19l.56-.55,2.18-2.07,1.58-1.49,1.82-1.82c1.3-1.32,2.82-2.79,4.38-4.52l2.49-2.67c.86-.94,1.71-2,2.61-3,1.83-2,3.64-4.34,5.58-6.73a196.33,196.33,0,0,0,11.51-16.39A183.13,183.13,0,0,0,414,339.08c1.25-2.81,2.5-5.46,3.47-8,.5-1.27,1-2.49,1.45-3.68s.83-2.35,1.21-3.45c.82-2.19,1.38-4.22,1.93-6l.75-2.47q.3-1.14.54-2.1c.33-1.24.58-2.21.76-2.9q.13-.46.21-.75a1.1,1.1,0,0,1,.09-.26,1.31,1.31,0,0,1,0,.27c-.05.19-.1.44-.17.76l-.69,2.93c-.15.63-.32,1.34-.5,2.11l-.72,2.48c-.52,1.78-1.07,3.82-1.87,6-.37,1.1-.77,2.26-1.18,3.46s-.94,2.43-1.44,3.71c-1,2.57-2.19,5.23-3.43,8.06a179.63,179.63,0,0,1-9.55,17.67,188.46,188.46,0,0,1-11.56,16.41c-1.95,2.39-3.77,4.69-5.62,6.72-.91,1-1.77,2-2.63,3l-2.52,2.67c-1.58,1.71-3.11,3.17-4.43,4.47L376.2,392l-1.61,1.46-2.23,2-.59.52A1.05,1.05,0,0,1,371.56,396.11Z" style="fill:#263238"></path><path d="M421.81,275.06c.86-1.69,2.15-3.46,4-3.63a4.29,4.29,0,0,1,4,2.83,12.76,12.76,0,0,1,.59,5.19,15.83,15.83,0,0,1,6.28-9.65c1.07-.76,2.58-1.37,3.63-.59a3.38,3.38,0,0,1,1,2.5,40.32,40.32,0,0,1-.45,11,11.48,11.48,0,0,1,4.78-2.39c1.77-.27,3.86.57,4.38,2.29a5.36,5.36,0,0,1-.18,2.91,39,39,0,0,1-9.1,16.42c-2.29,2.45-5,4.68-8.33,5.36s-7.51.68-9-2.36l.54.77A30.15,30.15,0,0,1,421.81,275.06Z" ></path><path d="M425.53,306.86a1.65,1.65,0,0,0,.1-.29c.07-.21.15-.48.26-.82s.23-.79.4-1.29.35-1.08.59-1.7.48-1.31.79-2,.65-1.48,1-2.28a45.18,45.18,0,0,1,6.13-9.63c.57-.67,1.11-1.31,1.65-1.87s1-1.09,1.52-1.56.93-.87,1.31-1.23.74-.65,1-.89l.66-.56c.14-.13.22-.2.21-.21a1.29,1.29,0,0,0-.25.17l-.68.52c-.3.23-.65.51-1.05.86s-.87.74-1.34,1.21-1,1-1.55,1.54-1.1,1.2-1.68,1.87a48.18,48.18,0,0,0-3.41,4.64,47.47,47.47,0,0,0-2.76,5c-.36.8-.71,1.57-1,2.3s-.55,1.42-.77,2.05-.4,1.21-.55,1.72-.28.94-.37,1.31-.15.61-.21.83A1.24,1.24,0,0,0,425.53,306.86Z" style="fill:#263238"></path><path d="M430.76,294.54a2.45,2.45,0,0,0,.08-.62c0-.4.07-1,.11-1.7.07-1.43.12-3.41.07-5.6s-.16-4.17-.29-5.6c-.06-.72-.12-1.3-.18-1.69a3,3,0,0,0-.1-.62,3.28,3.28,0,0,0,0,.62c0,.46.06,1,.1,1.7.08,1.43.17,3.41.22,5.59s0,4.17,0,5.6c0,.67,0,1.24,0,1.7A3,3,0,0,0,430.76,294.54Z" style="fill:#263238"></path><g style="opacity:0.30000000000000004"><path d="M440.93,282.68s-8.42,3.29-9.86,11.14C431.07,293.82,435.47,286.54,440.93,282.68Z"></path></g><path d="M457.58,339.59c1.36-.61,3-1.08,4.27-.26a3.36,3.36,0,0,1,1.09,3.7,10.08,10.08,0,0,1-2.17,3.48,12.45,12.45,0,0,1,8.58-2.88c1,.05,2.26.41,2.52,1.4a2.68,2.68,0,0,1-.59,2,31.42,31.42,0,0,1-5.62,6.55,9,9,0,0,1,4.11.85,3.09,3.09,0,0,1,1.59,3.54,4.09,4.09,0,0,1-1.54,1.71,30.59,30.59,0,0,1-13.61,5.69,12.85,12.85,0,0,1-7.74-.76c-2.36-1.18-5-3.24-4.37-5.81l-.05.74A23.73,23.73,0,0,1,457.58,339.59Z" ></path><path d="M444.38,361l.2-.12.56-.39.88-.6c.35-.22.74-.49,1.19-.76s.93-.57,1.48-.86,1.12-.6,1.73-.91a38.71,38.71,0,0,1,4.15-1.74,39.89,39.89,0,0,1,4.33-1.21c.68-.13,1.32-.27,1.93-.35s1.18-.16,1.7-.22,1-.08,1.4-.12.78,0,1.07-.05l.67,0,.24,0-.24,0H465c-.3,0-.66,0-1.07,0s-.89,0-1.42.09-1.09.1-1.7.2-1.27.2-1.95.33a38,38,0,0,0-4.36,1.2,36.92,36.92,0,0,0-4.16,1.76c-.62.32-1.2.62-1.74.93s-1,.61-1.47.89-.83.56-1.17.79-.64.45-.87.63l-.53.42Z" style="fill:#263238"></path><path d="M453.61,356a2.35,2.35,0,0,0,.35-.34c.22-.23.52-.57.89-1,.75-.85,1.74-2.05,2.78-3.42s1.93-2.65,2.55-3.59l.72-1.13c.16-.27.25-.42.23-.43a2.18,2.18,0,0,0-.3.38l-.77,1.09c-.65.93-1.55,2.19-2.59,3.56s-2,2.58-2.73,3.45c-.33.41-.61.76-.84,1A2.15,2.15,0,0,0,453.61,356Z" style="fill:#263238"></path><g style="opacity:0.30000000000000004"><path d="M465.66,353.62s-6.8-2.08-11.51,2.05C454.15,355.67,460.41,353.33,465.66,353.62Z"></path></g><path d="M83.44,404.91a28.63,28.63,0,0,0,.12,17.61c4.32-3.65,9.21-9.74,10.71-15.2a27.35,27.35,0,0,0-.42-16.41A28.14,28.14,0,0,0,83.44,404.91Z" style="fill:#455a64"></path><path d="M85.89,414a5.91,5.91,0,0,1,.11-1c.09-.62.25-1.5.48-2.59a67,67,0,0,1,2.31-8.37,70.09,70.09,0,0,1,3.34-8c.49-1,.91-1.79,1.22-2.33a6.09,6.09,0,0,1,.5-.82,5.61,5.61,0,0,1-.39.88c-.27.56-.66,1.37-1.13,2.37-.93,2-2.13,4.83-3.24,8a84.57,84.57,0,0,0-2.39,8.31c-.26,1.08-.45,1.95-.58,2.56A6.32,6.32,0,0,1,85.89,414Z" style="fill:#263238"></path><path d="M57.91,409.88A28.71,28.71,0,0,0,58,427.49c4.33-3.65,9.22-9.75,10.72-15.2a28.34,28.34,0,0,0-.56-16.71A28.68,28.68,0,0,0,57.91,409.88Z" style="fill:#455a64"></path><path d="M60.36,419a6.14,6.14,0,0,1,.11-1c.09-.61.25-1.5.48-2.58A70.63,70.63,0,0,1,63.26,407a69.33,69.33,0,0,1,3.34-8c.5-1,.92-1.79,1.22-2.33a6,6,0,0,1,.51-.83,5,5,0,0,1-.39.89c-.28.55-.67,1.36-1.13,2.37a85.73,85.73,0,0,0-3.24,8c-1.1,3.19-1.89,6.15-2.4,8.31-.25,1.07-.44,2-.57,2.56A5.15,5.15,0,0,1,60.36,419Z" style="fill:#263238"></path><path d="M43.06,392.61a28.64,28.64,0,0,1-9.46-14.85c5.61.71,13,3.17,17.24,6.94A28.33,28.33,0,0,1,59.45,399,28.67,28.67,0,0,1,43.06,392.61Z" style="fill:#455a64"></path><path d="M40.18,383.66a7.29,7.29,0,0,0,.62.74c.41.47,1,1.12,1.8,1.91a68.46,68.46,0,0,0,6.49,5.77A67.55,67.55,0,0,0,56.24,397c1,.57,1.74,1,2.29,1.29a5.39,5.39,0,0,0,.87.42,4.91,4.91,0,0,0-.8-.53c-.54-.32-1.3-.78-2.24-1.38-1.87-1.18-4.41-2.89-7.07-5s-4.93-4.14-6.53-5.68l-1.87-1.84A5,5,0,0,0,40.18,383.66Z" style="fill:#263238"></path><path d="M67.69,385.91a28.62,28.62,0,0,1-9.46-14.85c5.61.71,13,3.18,17.25,6.94a28.47,28.47,0,0,1,8.61,14.33A28.67,28.67,0,0,1,67.69,385.91Z" style="fill:#455a64"></path><path d="M64.82,377a5.16,5.16,0,0,0,.61.74c.41.47,1,1.12,1.81,1.92a69.68,69.68,0,0,0,6.48,5.76,68.58,68.58,0,0,0,7.16,4.92c1,.57,1.74,1,2.29,1.29A5.39,5.39,0,0,0,84,392a6.63,6.63,0,0,0-.81-.53c-.53-.31-1.3-.78-2.23-1.37a86.09,86.09,0,0,1-7.08-5,83.5,83.5,0,0,1-6.52-5.68c-.8-.76-1.44-1.39-1.88-1.84A5.32,5.32,0,0,0,64.82,377Z" style="fill:#263238"></path><path d="M111.64,392a6.79,6.79,0,0,0-.72-.12l-2.07-.29-1.5-.2c-.55-.06-1.16-.09-1.8-.15-1.29-.09-2.75-.25-4.38-.27l-2.56-.07c-.88,0-1.81,0-2.77,0-1.91,0-4,.15-6.1.29a107.61,107.61,0,0,0-13.84,2.12,107.2,107.2,0,0,0-13.39,4.08c-2,.81-3.91,1.54-5.63,2.38-.87.4-1.72.77-2.51,1.17l-2.27,1.17c-1.46.73-2.72,1.5-3.84,2.15-.55.32-1.08.62-1.55.91l-1.27.83-1.74,1.15a5,5,0,0,0-.6.43,5,5,0,0,0,.64-.35l1.79-1.09,1.29-.79c.47-.28,1-.57,1.56-.88,1.13-.62,2.39-1.38,3.86-2.08l2.27-1.15c.8-.39,1.65-.75,2.51-1.14,1.73-.82,3.64-1.54,5.63-2.34a108.43,108.43,0,0,1,13.35-4,110.56,110.56,0,0,1,13.77-2.15c2.14-.15,4.17-.33,6.08-.34,1,0,1.88-.06,2.76-.05l2.55.05c1.62,0,3.08.13,4.37.2.65.05,1.25.07,1.8.12l1.5.16,2.08.2A4,4,0,0,0,111.64,392Z" style="fill:#263238"></path><path d="M33.21,407.58a28.64,28.64,0,0,0-11,13.73c5.66-.1,13.3-1.74,17.91-5A28.48,28.48,0,0,0,50.21,403,28.62,28.62,0,0,0,33.21,407.58Z" style="fill:#455a64"></path><path d="M29.37,416.16a8.35,8.35,0,0,1,.7-.67c.45-.42,1.14-1,2-1.71a69.78,69.78,0,0,1,14.72-9.13c1-.46,1.84-.81,2.42-1a5.91,5.91,0,0,1,.91-.33,4.41,4.41,0,0,1-.86.44c-.56.26-1.37.64-2.37,1.13-2,1-4.7,2.39-7.58,4.17a86.37,86.37,0,0,0-7.1,4.93c-.88.68-1.58,1.24-2.06,1.63A5.27,5.27,0,0,1,29.37,416.16Z" style="fill:#263238"></path><path d="M67,326.18a32,32,0,0,0-19.62,1.21c4.33,4.6,11.43,9.67,17.6,11a31.78,31.78,0,0,0,18.59-1.64A32,32,0,0,0,67,326.18Z" style="fill:#455a64"></path><path d="M57,329.46a6.56,6.56,0,0,1,1.07.07c.69.06,1.69.18,2.91.37A76.82,76.82,0,0,1,70.49,332a77.6,77.6,0,0,1,9.14,3.23c1.14.49,2.05.91,2.67,1.22a7,7,0,0,1,1,.51,5.07,5.07,0,0,1-1-.38c-.63-.27-1.56-.65-2.71-1.11a96.42,96.42,0,0,0-9.14-3.12c-3.63-1-7-1.73-9.41-2.16-1.21-.22-2.2-.38-2.89-.48A6.21,6.21,0,0,1,57,329.46Z" style="fill:#263238"></path><path d="M77.44,351a28,28,0,0,0-16.26,5.55c4.72,2.88,11.87,5.52,17.38,5.21a27.69,27.69,0,0,0,15.29-5.68A27.91,27.91,0,0,0,77.44,351Z" style="fill:#455a64"></path><path d="M69.8,356.07a5.26,5.26,0,0,1,.92-.19c.6-.11,1.47-.24,2.54-.36a67.62,67.62,0,0,1,16.9.16c1.08.15,1.94.29,2.54.41a5.3,5.3,0,0,1,.92.21,5.33,5.33,0,0,1-.94-.09c-.6-.08-1.47-.19-2.54-.31-2.15-.24-5.13-.48-8.42-.52a84.28,84.28,0,0,0-8.43.36c-1.08.1-2,.19-2.55.26A6.48,6.48,0,0,1,69.8,356.07Z" style="fill:#263238"></path><path d="M88.86,333.44a27.91,27.91,0,0,1,8.73-14.8c1.86,5.19,3,12.73,1.59,18.07a27.64,27.64,0,0,1-8.64,13.83A28,28,0,0,1,88.86,333.44Z" style="fill:#455a64"></path><path d="M95.37,327a5.41,5.41,0,0,0-.37.86c-.23.56-.52,1.39-.87,2.42A69.17,69.17,0,0,0,92,338.45a67,67,0,0,0-1.11,8.4c-.07,1.08-.1,1.95-.11,2.56a4.57,4.57,0,0,0,0,.94,6.59,6.59,0,0,0,.1-.94c0-.6.11-1.47.21-2.55a81.14,81.14,0,0,1,3.24-16.53c.31-1,.58-1.87.77-2.45A4.48,4.48,0,0,0,95.37,327Z" style="fill:#263238"></path><path d="M81.15,310.15a27.23,27.23,0,0,1,12-11.76c.44,5.37-.39,12.78-3.07,17.46A27,27,0,0,1,78.39,326.7,27.26,27.26,0,0,1,81.15,310.15Z" style="fill:#455a64"></path><path d="M88.93,305.7a5.14,5.14,0,0,0-.58.72c-.35.47-.84,1.18-1.43,2.06a67.49,67.49,0,0,0-4.1,7.19,66,66,0,0,0-3.17,7.64c-.34,1-.59,1.82-.75,2.39a5.63,5.63,0,0,0-.22.89,5.27,5.27,0,0,0,.34-.85c.19-.56.47-1.37.84-2.36a81.05,81.05,0,0,1,3.24-7.58,82.1,82.1,0,0,1,4-7.2c.56-.9,1-1.62,1.34-2.11A8,8,0,0,0,88.93,305.7Z" style="fill:#263238"></path><path d="M125.79,393.78s-.06-.08-.18-.2l-.56-.55L122.87,391l-1.58-1.49-1.82-1.83c-1.3-1.32-2.82-2.78-4.38-4.51l-2.49-2.68c-.86-.94-1.71-1.95-2.61-3-1.83-2-3.64-4.34-5.58-6.73a198.25,198.25,0,0,1-11.51-16.4,184.22,184.22,0,0,1-9.54-17.6c-1.25-2.82-2.5-5.47-3.47-8-.5-1.28-1-2.5-1.45-3.69s-.83-2.35-1.21-3.45c-.82-2.18-1.38-4.21-1.93-6l-.75-2.47L74,311c-.33-1.24-.58-2.21-.76-2.91q-.14-.47-.21-.75a.9.9,0,0,0-.09-.25,1.27,1.27,0,0,0,0,.26c.05.2.1.45.17.76.16.7.39,1.68.69,2.93.15.64.32,1.34.5,2.11l.72,2.49c.52,1.77,1.07,3.81,1.87,6,.37,1.1.77,2.26,1.18,3.47s.94,2.42,1.44,3.7c1,2.58,2.19,5.24,3.43,8.06a179.63,179.63,0,0,0,9.55,17.67A187,187,0,0,0,104.1,371c2,2.39,3.77,4.69,5.62,6.72.91,1,1.77,2,2.63,3l2.52,2.66c1.58,1.72,3.11,3.17,4.43,4.47l1.85,1.81,1.61,1.46,2.23,2,.59.51A1.61,1.61,0,0,0,125.79,393.78Z" style="fill:#263238"></path><path d="M75.54,272.72c-.86-1.68-2.15-3.46-4-3.63a4.3,4.3,0,0,0-4,2.84,12.72,12.72,0,0,0-.59,5.18,15.86,15.86,0,0,0-6.28-9.65c-1.07-.76-2.58-1.37-3.63-.58a3.36,3.36,0,0,0-1,2.5,40.35,40.35,0,0,0,.45,11,11.5,11.5,0,0,0-4.78-2.4c-1.77-.26-3.86.57-4.38,2.29a5.36,5.36,0,0,0,.18,2.91,38.89,38.89,0,0,0,9.1,16.42c2.29,2.46,5,4.69,8.33,5.36s7.51.68,8.95-2.35l-.54.77A30.17,30.17,0,0,0,75.54,272.72Z" ></path><path d="M71.82,304.52a1.33,1.33,0,0,1-.1-.28c-.07-.22-.15-.49-.26-.82s-.23-.8-.4-1.3-.35-1.07-.59-1.7-.48-1.3-.79-2-.65-1.49-1-2.29a50,50,0,0,0-2.76-5,50.83,50.83,0,0,0-3.37-4.62c-.57-.67-1.11-1.31-1.65-1.88s-1.05-1.09-1.52-1.55-.93-.87-1.31-1.23-.74-.66-1-.9l-.66-.56c-.14-.13-.22-.2-.21-.21a2.48,2.48,0,0,1,.25.17l.68.52q.45.34,1,.87c.4.35.87.73,1.34,1.2s1,1,1.55,1.55,1.1,1.2,1.68,1.86A48.18,48.18,0,0,1,66.12,291a49.51,49.51,0,0,1,2.76,5c.36.81.71,1.57,1,2.31s.55,1.41.77,2,.4,1.21.55,1.72.28.95.37,1.31.15.62.21.84A1.28,1.28,0,0,1,71.82,304.52Z" style="fill:#263238"></path><path d="M66.59,292.2a2.34,2.34,0,0,1-.08-.62c0-.4-.07-1-.11-1.69-.07-1.43-.12-3.42-.07-5.61s.16-4.17.29-5.6c.06-.71.12-1.29.18-1.69a3,3,0,0,1,.1-.62,3.47,3.47,0,0,1,0,.63c0,.45-.06,1-.1,1.69-.08,1.43-.17,3.41-.22,5.6s0,4.16,0,5.59c0,.68,0,1.25,0,1.7A3,3,0,0,1,66.59,292.2Z" style="fill:#263238"></path><g style="opacity:0.30000000000000004"><path d="M56.42,280.35s8.42,3.29,9.86,11.13C66.28,291.48,61.88,284.2,56.42,280.35Z"></path></g><path d="M39.77,337.26c-1.36-.62-3-1.08-4.27-.27a3.37,3.37,0,0,0-1.09,3.7,10,10,0,0,0,2.17,3.49A12.41,12.41,0,0,0,28,341.29c-1,0-2.26.41-2.52,1.41a2.67,2.67,0,0,0,.59,2,31.42,31.42,0,0,0,5.62,6.55,9.11,9.11,0,0,0-4.11.85A3.09,3.09,0,0,0,26,355.68a4.21,4.21,0,0,0,1.54,1.71,30.57,30.57,0,0,0,13.61,5.68,12.92,12.92,0,0,0,7.74-.75c2.36-1.19,5-3.25,4.37-5.82l0,.74A23.71,23.71,0,0,0,39.77,337.26Z" ></path><path d="M53,358.68l-.2-.13-.56-.38c-.24-.17-.53-.38-.88-.6s-.74-.5-1.19-.76-.94-.57-1.48-.87-1.12-.6-1.73-.91a40.87,40.87,0,0,0-4.15-1.74,37.6,37.6,0,0,0-4.33-1.2c-.68-.14-1.32-.27-1.93-.35s-1.18-.17-1.7-.22-1-.09-1.4-.12-.78,0-1.07-.06l-.67,0-.24,0h.91a10,10,0,0,1,1.07,0c.42,0,.89,0,1.42.09s1.09.1,1.7.19,1.27.21,2,.33a38,38,0,0,1,4.36,1.2A38.85,38.85,0,0,1,47,354.86c.62.32,1.2.62,1.74.94s1,.61,1.47.89.83.55,1.17.79a10.06,10.06,0,0,1,.87.63l.53.41Z" style="fill:#263238"></path><path d="M43.74,353.63a2.35,2.35,0,0,1-.35-.34c-.22-.23-.52-.57-.89-1-.75-.85-1.74-2.05-2.78-3.42s-1.93-2.66-2.55-3.6c-.31-.47-.55-.86-.72-1.13s-.25-.42-.23-.43a2.08,2.08,0,0,1,.3.39l.77,1.09c.65.92,1.55,2.19,2.59,3.55s2,2.58,2.73,3.45c.33.42.61.76.84,1A2,2,0,0,1,43.74,353.63Z" style="fill:#263238"></path><g style="opacity:0.30000000000000004"><path d="M31.69,351.28s6.8-2.08,11.51,2.05C43.2,353.33,36.94,351,31.69,351.28Z"></path></g></g><g id="freepik--Character--inject-70"><rect x="107.83" y="59.31" width="285.32" height="386.42" style="fill:#455a64"></rect><path d="M393.16,445.73c0-2.08-.1-157.64-.24-386.42l.24.24-285.29,0h0l.26-.26c0,144.19,0,277.76,0,386.42l-.22-.21,285.33.21-285.33.21h-.21v-.21c0-108.66,0-242.23-.05-386.42v-.26h.3l285.29,0h.23v.24C393.25,288.09,393.16,443.65,393.16,445.73Z" style="fill:#263238"></path><rect x="145.43" y="102.06" width="207.06" height="299.51" style="fill:#fff"></rect><path d="M352.5,401.57c0-2.11-.1-122.8-.24-299.51l.24.24-207,0h0l.26-.26c0,112.52,0,216.46-.05,299.51l-.21-.21,207.07.21-207.07.21h-.21v-.21c0-83.05,0-187-.05-299.51v-.26h.29l207,0h.23v.24C352.59,278.77,352.5,399.46,352.5,401.57Z" style="fill:#263238"></path><path d="M147.92,400.89c.11.1-8.78,10.21-19.85,22.59s-20.13,22.35-20.24,22.25,8.78-10.21,19.85-22.59S147.81,400.8,147.92,400.89Z" style="fill:#263238"></path><path d="M393.16,61.16c.1.1-8.79,9.8-19.86,21.67s-20.12,21.42-20.23,21.32,8.78-9.8,19.85-21.67S393.05,61.06,393.16,61.16Z" style="fill:#263238"></path><path d="M107.87,59.31c.11-.1,9.16,9.86,20.22,22.24s19.94,22.5,19.83,22.6-9.16-9.86-20.22-22.25S107.76,59.41,107.87,59.31Z" style="fill:#263238"></path><path d="M353.07,400.89c.11-.09,9.17,9.87,20.24,22.25s19.95,22.49,19.85,22.59-9.17-9.86-20.24-22.25S353,401,353.07,400.89Z" style="fill:#263238"></path><rect x="155.21" y="111.07" width="187.5" height="282.9" style="fill:#e0e0e0"></rect><path d="M313,276.59a3.83,3.83,0,0,0-1.81-3c-16-10.6-28.09-34.1-29.3-54,0-1.13-.07-2.28-.11-3.44h0c-.93-28.45-5.12-63-8.88-72.14-6.94-17-30.46-18.58-30.46-18.58-31.23-2.24-36.81,21.76-40,43.61-2,13.59-9.51,62.14-9.51,62.14l5.74,2.23a70.65,70.65,0,0,0,41.78,43.69c5.75,2.17,10.63,3,12.91,1.17a78.51,78.51,0,0,0,32.86,20,40.77,40.77,0,0,0,15.58,2.07c3.41-.32,7-1.44,9-4.2a7.83,7.83,0,0,0-6.72-12.47C305.34,279.78,313.13,280.91,313,276.59Z" style="fill:#263238"></path><path d="M246.59,134.26l-2-1.86-21.11,8.51a5.89,5.89,0,0,0-5.57,5.7l.19,68.79c0,4.66.9,8.7,3.72,12.42l3,3.92c6.76,8.92,20.66,8.19,26-1.65a7.48,7.48,0,0,0,.74-1.77,14.19,14.19,0,0,0,.32-1.54c.62-5.54.66-10.34.66-10.34.38-6.07.5-8.57.5-8.51s12.93-1.49,16.43-18.08c1.74-8.26,1.41-19.61.92-30.79C269.75,143.59,259,134.25,246.59,134.26Z" style="fill:#ffbe9d"></path><path d="M242.26,168.33a2.15,2.15,0,0,1-2.17,2.06,2.06,2.06,0,0,1-2.12-2,2.15,2.15,0,0,1,2.18-2.06A2,2,0,0,1,242.26,168.33Z" style="fill:#263238"></path><path d="M264.09,168.91a2.14,2.14,0,0,1-2.18,2.06,2.06,2.06,0,0,1-2.12-2,2.15,2.15,0,0,1,2.18-2.06A2.05,2.05,0,0,1,264.09,168.91Z" style="fill:#263238"></path><path d="M268.22,163.48c-.28.27-1.84-1-4.15-1.13s-4.06,1-4.3.67.18-.63,1-1.13a5.91,5.91,0,0,1,3.45-.88,5.71,5.71,0,0,1,3.29,1.25C268.14,162.84,268.36,163.36,268.22,163.48Z" style="fill:#263238"></path><path d="M244.79,163.72c-.31.23-1.73-1.2-4-1.55s-4.13.54-4.34.22c-.1-.14.24-.6,1.06-1a5.9,5.9,0,0,1,3.52-.52,5.7,5.7,0,0,1,3.15,1.58C244.78,163.08,244.94,163.61,244.79,163.72Z" style="fill:#263238"></path><path d="M252.86,180.53a15.2,15.2,0,0,1,3.78-.49c.59,0,1.16-.12,1.28-.52a3,3,0,0,0-.31-1.77l-1.52-4.57c-2.1-6.52-3.59-11.86-3.33-11.94s2.18,5.13,4.29,11.64q.75,2.42,1.44,4.6a3.45,3.45,0,0,1,.19,2.33,1.48,1.48,0,0,1-1,.81,3.77,3.77,0,0,1-1,.09A15.2,15.2,0,0,1,252.86,180.53Z" style="fill:#263238"></path><path d="M253.08,207.93a42.65,42.65,0,0,1-22.11-7.1S236,212.7,252.85,212Z" style="fill:#eb996e"></path><path d="M251.6,186a4.16,4.16,0,0,0-3.65-1.73,3.81,3.81,0,0,0-2.7,1.28,2.43,2.43,0,0,0-.32,2.74,2.81,2.81,0,0,0,3,.92,8.77,8.77,0,0,0,3-1.62,2.42,2.42,0,0,0,.7-.65.77.77,0,0,0,0-.86" style="fill:#eb996e"></path><path d="M246,181.78c.38,0,.26,2.51,2.31,4.39s4.74,1.75,4.74,2.1c0,.16-.62.46-1.75.43a6.24,6.24,0,0,1-4-1.61,5.48,5.48,0,0,1-1.78-3.67C245.5,182.37,245.81,181.76,246,181.78Z" style="fill:#263238"></path><path d="M247,154.72c-.32.58-2.56-.06-5.29-.15s-5,.31-5.28-.3c-.12-.29.35-.82,1.32-1.28a9.18,9.18,0,0,1,8.05.34C246.72,153.87,247.14,154.44,247,154.72Z" style="fill:#263238"></path><path d="M267.89,153.56c-.43.5-2-.12-3.91-.24s-3.55.17-3.89-.4c-.15-.27.13-.78.86-1.24a5.68,5.68,0,0,1,6.29.51C267.89,152.76,268.08,153.31,267.89,153.56Z" style="fill:#263238"></path><path d="M218.38,176s11.83,3.68,18.52-25.51c2.29-10,11.54-18.06,11.54-18.06l-3.75-1.13s-23.32,6.57-23.71,6.86-5.89,12.07-5.89,12.07Z" style="fill:#263238"></path><path d="M221.3,174.88c.06-1.24-1.24-4.25-2.46-4.51-3.26-.67-9.19-.71-9.67,7.63-.64,11.41,10.94,9.71,11,9.38S221.09,179.18,221.3,174.88Z" style="fill:#ffbe9d"></path><path d="M216.91,182.86s-.21.13-.55.26a1.94,1.94,0,0,1-1.49-.05c-1.18-.51-2.09-2.48-2-4.54a6.63,6.63,0,0,1,.71-2.81,2.29,2.29,0,0,1,1.58-1.44,1,1,0,0,1,1.15.61c.13.33.05.55.1.57s.26-.17.2-.65a1.32,1.32,0,0,0-.41-.74,1.51,1.51,0,0,0-1.09-.35,2.77,2.77,0,0,0-2.17,1.65,6.73,6.73,0,0,0-.87,3.14c-.06,2.3,1,4.52,2.62,5.09a2.14,2.14,0,0,0,1.83-.2C216.87,183.14,217,182.88,216.91,182.86Z" style="fill:#eb996e"></path><path d="M226.4,170.39a16.36,16.36,0,0,0,1.71-.35,10.29,10.29,0,0,0,4.06-2.35,14,14,0,0,0,2.12-2.49,18.26,18.26,0,0,0,1.72-3.33,71.92,71.92,0,0,0,2.46-8.29,86.38,86.38,0,0,1,2.62-8.28,48.37,48.37,0,0,1,3-6.45,33.3,33.3,0,0,1,2.61-4c.33-.46.63-.78.82-1a2.35,2.35,0,0,1,.3-.33,2.23,2.23,0,0,1-.26.37c-.17.25-.45.58-.77,1a40.36,40.36,0,0,0-2.52,4,50.09,50.09,0,0,0-2.89,6.44c-.94,2.49-1.8,5.29-2.6,8.26a66.66,66.66,0,0,1-2.49,8.32,18.66,18.66,0,0,1-1.77,3.36,14,14,0,0,1-2.18,2.5,10.17,10.17,0,0,1-4.18,2.32A6.43,6.43,0,0,1,226.4,170.39Z" style="fill:#263238"></path><path d="M210.82,219.05a2.42,2.42,0,0,1-.13-.56l-.28-1.62c-.25-1.46-.59-3.54-1-6.19l.28,0c.05.42.12.88.18,1.35v0c.07.15.16.33.24.51l-.29.1a111.42,111.42,0,0,1-4.35-30.23c0-4.17,0-8.6,1.13-13a20.49,20.49,0,0,1,2.07-5.17,28.23,28.23,0,0,1,3.15-4.4c2.32-2.68,4.82-5,7.1-7.27l12.25-12,8.28-8.09,2.27-2.18.6-.56.22-.18s-.05.08-.18.22l-.56.59-2.2,2.25c-2,2-4.75,4.76-8.17,8.21l-12.17,12.12c-2.27,2.3-4.77,4.62-7.05,7.27a22.41,22.41,0,0,0-5.11,9.36c-1.09,4.33-1.08,8.74-1.13,12.89a115.17,115.17,0,0,0,4.15,30.15l-.29.11-.23-.52v0c-.06-.48-.12-.94-.17-1.35l.27,0c.39,2.65.69,4.74.9,6.21.09.69.16,1.23.22,1.63A4.61,4.61,0,0,1,210.82,219.05Z" style="fill:#455a64"></path><path d="M201.84,166.32a1.79,1.79,0,0,1,.2-.48c.18-.36.4-.8.66-1.34.58-1.16,1.49-2.8,2.69-4.79s2.71-4.31,4.51-6.8,3.93-5.12,6.29-7.77,4.79-5,7.05-7.07,4.42-3.82,6.28-5.21,3.39-2.48,4.49-3.18l1.26-.81a3.17,3.17,0,0,1,.45-.25s-.12.13-.4.34l-1.2.88c-1.06.75-2.56,1.88-4.37,3.31s-3.93,3.21-6.18,5.27-4.63,4.45-7,7.07-4.46,5.26-6.29,7.7-3.36,4.75-4.59,6.71-2.19,3.57-2.82,4.7l-.75,1.29A2.53,2.53,0,0,1,201.84,166.32Z" style="fill:#455a64"></path><path d="M214.9,214.73c.4-.58,3.06-5.71,3.06-5.71L233,222s14.78,12.37,14.78,11.57l2.36-11.9,2.9-10.84,5.42,8.2s17,33.4,17,33.8,10.55,35,10.55,35l-2.27,14-.27,49.65-31.77-1.33-6.27-10L234.7,276.47Z" style="fill:#fff"></path><polygon points="250.5 340.8 285.55 340.8 295.88 394.05 225.65 394.05 250.5 340.8" style="fill:#263238"></polygon><path d="M209.15,223l-20.46,7.68,18.9,84.17s-1.11,22.74-5.13,34.33S189,394.05,189,394.05h62.86s2.67-45.68,1.61-62-.62-47.08-6.87-63.13-31.3-55.49-31.3-55.49Z" ></path><path d="M254,211.79l9.27,7.66,25.46,3.79s12.05,43.65,9.82,60.81.88,46.87.88,46.87l11.16,63.13H286.09s-7-73.83-7.41-72.94S276.92,285,274.25,273s-16.15-49.72-16.15-49.72Z" ></path><path d="M320.84,320.44s10.26-4.68,10.26-13.82-6.25-22.07-7.58-27-31.66-57.07-34.78-56.4l-3.12.67,16.05,70.45-21.85,5.35,9.32,26.82Z" ></path><path d="M289.56,297.67l4.5-14.56.77-9.92,10.59-7s2.84.33,2,2.53-5.17,6.16-5.17,6.16l-2.53,7.07,4.11-7.18,6-3,5.95.44s1.1,2.64-1.65,2.75h-3l-4.52,3.64-2.82,6.82,4.25-6.6,6.28-2.23,4,1s1.1,1.76-.88,2-3.3.22-3.3.22l-3.63,2.11-3.2,6.7,5.62-4.63,7.26-.87s1.22,1.75-.66,2.41a60,60,0,0,0-5.61,2.65l-4.08,4.95Z" style="fill:#ffbe9d"></path><path d="M253.72,340.8a1.4,1.4,0,0,1-.11-.33c-.06-.24-.15-.57-.25-1-.23-.89-.54-2.15-1-3.76-.81-3.31-2-8-3.42-13.88s-3.19-12.82-5.17-20.54c-1-3.86-2.06-7.91-3.22-12.1-.57-2.09-1.17-4.21-1.82-6.35-.32-1.07-.68-2.14-1-3.22a29.21,29.21,0,0,0-1.31-3.13c-3.75-7.53-7.58-14.62-11-21.16s-6.68-12.48-9.44-17.62l-.07-.14.11-.1c.7-.63,1.39-1.22,2.08-1.78a10.55,10.55,0,0,1,1.07-.79l.16-.09.1,0s0,0,0,0,0,0-.06.07a.18.18,0,0,0,.1.23h0l-.28,0h-.62c-1.66,0-3.22,0-4.66,0h-.11l0-.1c-1.46-3.77-2.61-6.76-3.41-8.84l-.89-2.34-.22-.61-.06-.21s0,.06.1.19l.26.6,1,2.31c.83,2.07,2,5,3.55,8.79l-.15-.1c1.45,0,3-.08,4.67-.08h.63a2.43,2.43,0,0,1,.36,0h0l.06,0a.2.2,0,0,1,.05.2c-.06.11-.05.07-.07.09l-.09,0-.05,0a.75.75,0,0,0-.12.07,8.89,8.89,0,0,0-1,.77c-.67.56-1.36,1.15-2,1.78l0-.24c2.77,5.13,6,11.07,9.52,17.58s7.32,13.61,11.08,21.16a28.62,28.62,0,0,1,1.33,3.19c.35,1.09.71,2.16,1,3.24q1,3.23,1.82,6.37c1.15,4.19,2.19,8.24,3.18,12.11,2,7.73,3.66,14.71,5.07,20.58l3.26,13.91c.36,1.62.65,2.89.85,3.79.08.41.15.74.2,1A1.45,1.45,0,0,1,253.72,340.8Z" style="fill:#263238"></path><path d="M286.09,291.29a3.86,3.86,0,0,1,0-.78c0-.57.07-1.31.13-2.24,0-.49.06-1,.1-1.62v-1.92c0-1.39,0-3-.1-4.69a97.77,97.77,0,0,0-5.28-26.55A94.31,94.31,0,0,0,276.66,243h0a91.32,91.32,0,0,0-4.95-9.63c-1.63-2.84-3.13-5.31-4.39-7.35l-3-4.77c-.33-.52-.59-1-.8-1.27a3.54,3.54,0,0,1-.25-.46,2.67,2.67,0,0,1,.33.41l.86,1.23c.74,1.08,1.8,2.67,3.1,4.69s2.84,4.48,4.5,7.31a86.77,86.77,0,0,1,5,9.65v0a89.61,89.61,0,0,1,4.33,10.6,94,94,0,0,1,5.16,26.7c.11,1.75.05,3.33,0,4.71,0,.69,0,1.34-.05,1.93s-.1,1.13-.14,1.62c-.09.93-.17,1.68-.22,2.24A6.75,6.75,0,0,1,286.09,291.29Z" style="fill:#263238"></path><path d="M321.6,320.05a3.36,3.36,0,0,1-.63.17l-1.83.42-6.91,1.51-24.16,5.13-.21.05-.07-.21c-2-6-4.26-12.56-6.59-19.45l-2.42-7.17-.1-.27.28-.07,18.17-4.27,7.83-1.83,3.53-.82a16.47,16.47,0,0,1,3.32-.56,12.25,12.25,0,0,1,5.6,1.14,14.1,14.1,0,0,1,3.6,2.35,12.93,12.93,0,0,1,1.81,2c.15.24.28.43.38.58s.13.21.12.21a16.49,16.49,0,0,0-2.44-2.65,14.27,14.27,0,0,0-3.58-2.25,12.39,12.39,0,0,0-5.48-1,15.55,15.55,0,0,0-3.23.59l-3.53.85-7.82,1.88c-5.53,1.31-11.66,2.77-18.16,4.33l.18-.34,2.43,7.17c2.32,6.9,4.54,13.47,6.56,19.47l-.28-.16,24.2-4.94,6.94-1.38,1.84-.35A4.83,4.83,0,0,1,321.6,320.05Z" style="fill:#263238"></path><polygon points="203.5 355.02 236.97 358.1 231.21 368.34 195.96 364.89 203.5 355.02" ></polygon><path d="M203.5,355s0,.08-.12.2l-.37.52-1.46,2L196.09,365l-.12-.28L230,368l1.24.12-.25.13L236.75,358l.19.37L213,356l-7-.71-1.88-.21a3.69,3.69,0,0,1-.66-.1l.63,0,1.85.13,7,.57L237,357.85l.38,0-.19.34-5.74,10.25-.09.14h-.17l-1.24-.12-34-3.41-.32,0,.19-.25,5.64-7.22,1.52-1.92A7.29,7.29,0,0,1,203.5,355Z" style="fill:#263238"></path><polygon points="293.6 358.46 298.83 368.34 310.07 366.04 304.11 356.94 293.6 358.46" ></polygon><path d="M293.6,358.46a4.15,4.15,0,0,1,.69-.14l2.1-.36c1.82-.31,4.47-.75,7.69-1.24l.14,0,.08.12c1.74,2.64,3.8,5.75,6,9.08l.21.32-.38.08-.56.11-10.69,2.15-.16,0-.08-.15c-1.58-3-2.85-5.55-3.72-7.29-.4-.81-.73-1.48-1-2a4.94,4.94,0,0,1-.31-.68s.17.27.44.74l1.13,2c1,1.72,2.3,4.12,3.86,7l-.25-.11,10.68-2.22.56-.11-.16.39c-2.18-3.34-4.21-6.46-5.93-9.12l.21.1c-3.11.43-5.7.74-7.56,1l-2.17.25C293.9,358.44,293.62,358.47,293.6,358.46Z" style="fill:#263238"></path><g style="opacity:0.30000000000000004"><polygon points="200.04 365.3 198.65 368.34 233.42 371.53 236.01 359.8 231.21 368.34 200.04 365.3"></polygon></g><g style="opacity:0.30000000000000004"><path d="M207.21,320.18s5.46,11.44,12.55,14.79c9.67,4.56,33.89,1.58,33.89,1.58l.07-6.95-28.07,1.6Z"></path></g><path d="M190,230.15s-9.81.67-10,26.31,29.87,68.66,35,72.9,11,7.08,26.44,4.79c19.38-2.87,32.86-5.46,32.86-5.46l-2.68-23.41L237,303.72,208.93,246S199.57,229,190,230.15Z" ></path><g style="opacity:0.30000000000000004"><path d="M280,315.11c-3.8-1.58-8-1.61-12.15-1.62l-16.36-.05a41.58,41.58,0,0,0-10.52.87,14,14,0,0,0-8.57,5.76l-8.55,7.07a56.65,56.65,0,0,0,33-1.93,42.19,42.19,0,0,1,8-2.62c7.39-1.16,14.87,3.13,22.22,1.76C287.08,320.23,283.79,316.7,280,315.11Z"></path></g><path d="M224.58,291.29a73.94,73.94,0,0,0,9.81,3.18,61.91,61.91,0,0,1,12.16,3.87,80.67,80.67,0,0,1,8.11,3.73l5.16,18s-8.57,5.39-18.24,5.11-18.24,2.85-19.48,2-1.38-2.39,0-3.08,7.24-1.52,7.24-1.52l5-2.07s-17.27,1.52-18.65.83-2.76-1.66-2.21-3.18a2.16,2.16,0,0,1,1.93-1.52s-3.73.14-3.59-1.38a4.76,4.76,0,0,1,2.07-3.18c.56-.28,7.8-3.22,7.8-3.22l9.32-1.86-8.95-.36-7.82,2.18s-3.12.36-2.42-2.27S222.1,301,222.1,301l12.16-.83s-9.4-1.38-10.37-4.28A4.5,4.5,0,0,1,224.58,291.29Z" style="fill:#ffbe9d"></path><polygon points="254.66 302.07 255.26 302.07 278.99 301.02 286.09 321.74 259.82 320.03 254.66 302.07" style="fill:#ffbe9d"></polygon><path d="M234,313.85a19.94,19.94,0,0,1-2.9.23c-1.79.1-4.26.31-7,.72s-5.11.94-6.85,1.37a21.54,21.54,0,0,1-2.84.65,12.92,12.92,0,0,1,2.74-1,52.22,52.22,0,0,1,13.9-2.1A13.42,13.42,0,0,1,234,313.85Z" style="fill:#eb996e"></path><path d="M216.19,259.05a6.46,6.46,0,0,1-.79-1.14c-.48-.74-1.16-1.83-2-3.15a116.55,116.55,0,0,0-7.35-9.93,56.3,56.3,0,0,0-8.75-8.67,47.81,47.81,0,0,0-4.29-2.78,7,7,0,0,1,1.28.52,12.66,12.66,0,0,1,1.43.78,18.24,18.24,0,0,1,1.8,1.18,50.49,50.49,0,0,1,8.93,8.63,92.64,92.64,0,0,1,7.26,10.08c.84,1.34,1.48,2.46,1.91,3.24A7.21,7.21,0,0,1,216.19,259.05Z" style="fill:#263238"></path><path d="M231.55,293.2a6,6,0,0,1-.53-1.15l-1.3-3.19c-1.08-2.7-2.61-6.42-4.38-10.49s-3.45-7.72-4.69-10.36c-.58-1.24-1.07-2.29-1.45-3.12a5.2,5.2,0,0,1-.48-1.18,6.78,6.78,0,0,1,.66,1.09c.39.71.94,1.75,1.6,3.05,1.32,2.6,3.06,6.23,4.84,10.31s3.25,7.83,4.25,10.56c.5,1.37.89,2.49,1.14,3.26A5.65,5.65,0,0,1,231.55,293.2Z" style="fill:#263238"></path><path d="M247.54,233.77s-.22-.07-.6-.26l-1.63-.86-5.74-3.17.34-.17c-.28,2.58-.75,5.59-1.23,8.8-.19,1.31-.37,2.58-.52,3.8l-.06.47-.35-.3c-3.08-2.61-5.74-4.91-7.64-6.57l-2.2-2a5.23,5.23,0,0,1-.76-.76,4,4,0,0,1,.87.62l2.31,1.85c1.95,1.59,4.66,3.84,7.74,6.43l-.41.16c.14-1.22.31-2.5.51-3.81.47-3.22,1-6.23,1.29-8.79l0-.34.29.17,5.65,3.34,1.56,1A2.42,2.42,0,0,1,247.54,233.77Z" style="fill:#263238"></path><path d="M256.31,219.05a6.56,6.56,0,0,1,.05,1.36c0,1,0,2.21-.07,3.69-.08,3.13-.22,7.44-.41,12.2,0,.12,0,.23,0,.35l0,.83-.45-.7-5.7-9,.35,0c-.63,1.73-1.15,3.18-1.56,4.29a8.49,8.49,0,0,1-.65,1.56,9.23,9.23,0,0,1,.44-1.63l1.39-4.35.13-.4.23.35,5.81,8.93-.48.13c0-.11,0-.23,0-.34.19-4.76.39-9.07.56-12.19.1-1.48.17-2.72.24-3.69A7,7,0,0,1,256.31,219.05Z" style="fill:#263238"></path><path d="M287.69,232.89a3.71,3.71,0,0,1-.8-.42l.12-.08c.63,2.24,2.41,9.55,4.43,18.23,1.24,5.29,2.32,10.08,3.08,13.56.36,1.67.65,3.06.88,4.12a8.75,8.75,0,0,1,.25,1.53,9.87,9.87,0,0,1-.45-1.48c-.27-1.06-.61-2.43-1-4.09-.86-3.45-2-8.23-3.23-13.52-2-8.68-3.66-16-4.08-18.32l0-.18.14.1A3.82,3.82,0,0,1,287.69,232.89Z" style="fill:#263238"></path><path d="M256.31,331.71a4.47,4.47,0,0,1-.61.2l-1.79.48c-1.56.41-3.84.94-6.67,1.46a82.17,82.17,0,0,1-10.06,1.21,46.69,46.69,0,0,1-12.38-.82,25.38,25.38,0,0,1-6.09-2.13,22.25,22.25,0,0,1-2.64-1.59,19.23,19.23,0,0,1-2.18-2,79.85,79.85,0,0,1-6.26-8c-1.66-2.36-2.93-4.31-3.8-5.67l-1-1.57a3.55,3.55,0,0,1-.31-.57,3.08,3.08,0,0,1,.4.51c.27.39.62.9,1.06,1.52.92,1.32,2.24,3.24,3.93,5.56a85,85,0,0,0,6.31,7.85,17.81,17.81,0,0,0,2.12,1.94,20,20,0,0,0,2.58,1.54,24.58,24.58,0,0,0,6,2.08,47.33,47.33,0,0,0,12.24.86,90.68,90.68,0,0,0,10-1.1c2.83-.48,5.11-.95,6.68-1.29l1.81-.39A2.41,2.41,0,0,1,256.31,331.71Z" style="fill:#263238"></path><g style="opacity:0.30000000000000004"><polygon points="210.09 225.39 212.74 237.98 214.9 236.63 213.66 239.63 240.75 288.76 237.23 277.54 216.14 237.63 219.48 234.96 213.87 234.96 210.09 225.39"></polygon></g><path d="M267,275.31c-.31.39-6.73,18.14-6.73,18.14l6.33-4s2.64,7.72,2.58,7.45,4.95-19.26,4.95-19.26Z" style="fill:#263238"></path><path d="M278.75,277.82s4.75,17.94,4.88,17.74,2.58-5.87,2.58-5.87l6.13,3.89-6.46-18.27Z" style="fill:#263238"></path><circle cx="276.31" cy="264.41" r="15.45" style="fill:#455a64"></circle><path d="M288.4,263.92a22.25,22.25,0,0,0-.47-2.93,12.12,12.12,0,0,0-4.41-6.54,11.86,11.86,0,0,0-11.24-1.66,11,11,0,0,0-3,1.61,11.28,11.28,0,0,0-2.5,2.52,11.79,11.79,0,0,0,0,14,10.88,10.88,0,0,0,2.5,2.52,11.07,11.07,0,0,0,3,1.62,11.88,11.88,0,0,0,11.24-1.67,12,12,0,0,0,4.41-6.53,22.53,22.53,0,0,0,.47-2.93,3.46,3.46,0,0,1,0,.77,5.69,5.69,0,0,1-.07.94,7.83,7.83,0,0,1-.23,1.27,12.06,12.06,0,0,1-4.38,6.78,12.21,12.21,0,0,1-11.63,1.82,12,12,0,0,1-3.13-1.67,11.75,11.75,0,0,1-2.61-2.61,12.26,12.26,0,0,1,0-14.6A11.54,11.54,0,0,1,269,254a11.42,11.42,0,0,1,3.13-1.67,12.28,12.28,0,0,1,6.47-.51,12.16,12.16,0,0,1,9.54,9.11,7.83,7.83,0,0,1,.23,1.27,5.66,5.66,0,0,1,.07.93A3.6,3.6,0,0,1,288.4,263.92Z" style="fill:#263238"></path><g style="opacity:0.2"><path d="M279.94,249.39l-19.08,17.14,1.21,3.88,21.81-19.48A8.69,8.69,0,0,0,279.94,249.39Z" style="fill:#fff"></path></g><g style="opacity:0.2"><path d="M285.61,252.06c-.08-.06-22.3,20.7-22.3,20.7l1.32,1.76c.05.05,22.35-21.29,22.35-21.29Z" style="fill:#fff"></path></g><path d="M278.14,258.73v12.08h-2.8V261h-2.42v-2.24Z" style="fill:#fff"></path><g style="opacity:0.30000000000000004"><path d="M266.14,263.92c0-6.33,4.48-11.52,10.17-12.05-.31,0-.63,0-1,0-6.15,0-11.13,5.41-11.13,12.09s5,12.09,11.13,12.09c.33,0,.65,0,1-.05C270.62,275.43,266.14,270.24,266.14,263.92Z"></path></g><g style="opacity:0.30000000000000004"><polygon points="285.55 111.07 288.4 211.79 342.72 227.84 342.72 111.07 285.55 111.07" style="fill:#fff"></polygon></g><path d="M207.21,303.44c.11.09-8.34,10.39-18.88,23s-19.17,22.75-19.28,22.66,8.34-10.39,18.88-23S207.1,303.35,207.21,303.44Z" style="fill:#fff"></path><path d="M211.77,283.82c.1.09-9.12,10.62-20.6,23.51s-20.88,23.27-21,23.17,9.11-10.62,20.59-23.51S211.66,283.72,211.77,283.82Z" style="fill:#fff"></path><path d="M329.9,183.43c.11.09-10.1,11.71-22.81,25.93S284,235.05,283.9,235,294,223.24,306.71,209,329.79,183.33,329.9,183.43Z" style="fill:#fff"></path><path d="M177.42,110.63l1.37,18.26a10.13,10.13,0,0,0,2.84,6.37,16.74,16.74,0,0,0,1.32,1.21A11.3,11.3,0,0,0,189.2,139l13.34,1.13L188,141.57a5.9,5.9,0,0,0-2.91,1.13c-.33.25-.65.5-1,.77a14.15,14.15,0,0,0-4.8,9.46l-1,10.81-1.1-10a14.14,14.14,0,0,0-6.66-10.64l-.09-.06a5.66,5.66,0,0,0-2.43-.75L152,141.07l13.92-1.29a11.19,11.19,0,0,0,7.2-3.47c.38-.41.75-.85,1.1-1.3a10.09,10.09,0,0,0,2-5.51Z" style="fill:#fff"></path><path d="M135.74,156.56l.88,11.8a6.55,6.55,0,0,0,1.84,4.11,10.59,10.59,0,0,0,.85.79,7.37,7.37,0,0,0,4,1.63l8.62.73-9.37.93a3.79,3.79,0,0,0-1.88.73c-.22.16-.42.32-.62.49a9.15,9.15,0,0,0-3.1,6.11l-.66,7-.7-6.44a9.15,9.15,0,0,0-4.31-6.87l-.06,0a3.56,3.56,0,0,0-1.57-.48l-10.4-.82,9-.83a7.23,7.23,0,0,0,4.65-2.24c.25-.27.49-.55.71-.84a6.46,6.46,0,0,0,1.31-3.56Z" style="fill:#fff"></path><path d="M124.46,424.9,377.57,427l-.22.22c0-97.58,0-218-.05-348.14V77.88l.27.26-253.11,0,.23-.24c-.14,205.39-.23,344.94-.23,347,0-2.08-.1-141.63-.24-347v-.24h.24l253.11,0h.26v1.44c0,130.1,0,250.56-.05,348.14v.21h-.22Z" style="fill:#263238"></path><rect x="184.27" y="409.16" width="136.11" height="31.78" rx="5.4" ></rect><g style="opacity:0.30000000000000004"><polygon points="247.4 409.16 220.16 440.94 229.61 440.94 257.08 409.16 247.4 409.16" style="fill:#fff"></polygon></g><path d="M226.7,420.85v1.46h-6.1v-7.88h6v1.46h-4.15v1.71h3.66V419h-3.66v1.83Z" style="fill:#fff"></path><path d="M235.32,422.31v-4.73l-2.32,3.9h-.82l-2.31-3.8v4.63h-1.71v-7.88h1.51l3,4.9,2.91-4.9H237l0,7.88Z" style="fill:#fff"></path><path d="M245.74,417.29c0,1.75-1.32,2.85-3.43,2.85h-1.58v2.17H238.9v-7.88h3.41C244.42,414.43,245.74,415.52,245.74,417.29Zm-1.85,0c0-.87-.56-1.38-1.68-1.38h-1.48v2.74h1.48C243.33,418.65,243.89,418.14,243.89,417.29Z" style="fill:#fff"></path><path d="M247,414.43h1.82v6.39h4v1.49H247Z" style="fill:#fff"></path><path d="M253.2,418.37a4.32,4.32,0,1,1,4.31,4.07A4.08,4.08,0,0,1,253.2,418.37Zm6.78,0a2.47,2.47,0,1,0-2.47,2.52A2.4,2.4,0,0,0,260,418.37Z" style="fill:#fff"></path><path d="M266.64,419.52v2.79h-1.83v-2.82l-3.05-5.06h1.94l2.1,3.5,2.11-3.5h1.79Z" style="fill:#fff"></path><path d="M276.49,420.85v1.46h-6.11v-7.88h6v1.46H272.2v1.71h3.66V419H272.2v1.83Z" style="fill:#fff"></path><path d="M284,420.85v1.46h-6.1v-7.88h5.95v1.46h-4.14v1.71h3.66V419h-3.66v1.83Z" style="fill:#fff"></path><g style="opacity:0.30000000000000004"><path d="M316.25,413.55a1.85,1.85,0,1,1-1.84-1.84A1.84,1.84,0,0,1,316.25,413.55Z"></path></g><g style="opacity:0.30000000000000004"><path d="M316.25,435.77a1.85,1.85,0,1,1-1.84-1.84A1.84,1.84,0,0,1,316.25,435.77Z"></path></g><g style="opacity:0.30000000000000004"><path d="M190.47,414a1.84,1.84,0,1,1-1.84-1.84A1.84,1.84,0,0,1,190.47,414Z"></path></g><g style="opacity:0.30000000000000004"><path d="M191.11,435.77a1.84,1.84,0,1,1-1.84-1.84A1.84,1.84,0,0,1,191.11,435.77Z"></path></g><g style="opacity:0.30000000000000004"><polygon points="238 409.16 210.11 440.94 206.21 440.94 233.72 409.16 238 409.16" style="fill:#fff"></polygon></g><path d="M201.82,431a5,5,0,1,1,5,4.68A4.68,4.68,0,0,1,201.82,431Zm7.78,0a2.83,2.83,0,1,0-2.83,2.89A2.77,2.77,0,0,0,209.6,431Z" style="fill:#fff"></path><path d="M215.38,428.13v2.39h4.19v1.68h-4.19v3.3h-2.09v-9.05h6.84v1.68Z" style="fill:#fff"></path><path d="M227.08,428.16h-2.9v-1.71h7.88v1.71h-2.89v7.34h-2.09Z" style="fill:#fff"></path><path d="M241.48,426.45v9.05h-2.09v-3.71h-4.11v3.71h-2.09v-9.05h2.09V430h4.11v-3.57Z" style="fill:#fff"></path><path d="M250.63,433.82v1.68h-7v-9.05h6.83v1.68h-4.75v2h4.2v1.63h-4.2v2.09Z" style="fill:#fff"></path><path d="M264.18,435.5v-5.43l-2.66,4.47h-.95l-2.65-4.35v5.31h-2v-9.05h1.73l3.39,5.63,3.33-5.63h1.72l0,9.05Z" style="fill:#fff"></path><path d="M267.72,431a5,5,0,1,1,4.95,4.68A4.68,4.68,0,0,1,267.72,431Zm7.78,0a2.83,2.83,0,1,0-2.83,2.89A2.76,2.76,0,0,0,275.5,431Z" style="fill:#fff"></path><path d="M287.49,426.45v9.05h-1.72L281.26,430v5.49h-2.07v-9.05h1.74l4.49,5.5v-5.5Z" style="fill:#fff"></path><path d="M291.51,428.16h-2.9v-1.71h7.88v1.71H293.6v7.34h-2.09Z" style="fill:#fff"></path><path d="M305.91,426.45v9.05h-2.09v-3.71h-4.11v3.71h-2.09v-9.05h2.09V430h4.11v-3.57Z" style="fill:#fff"></path><path d="M299.46,405.68l.41,5.42a3,3,0,0,0,.84,1.88,3.55,3.55,0,0,0,2.24,1.11l4,.34-4.3.43a1.69,1.69,0,0,0-.86.33l-.29.23a4.19,4.19,0,0,0-1.42,2.8l-.3,3.21-.33-3a4.19,4.19,0,0,0-2-3.15l0,0a1.68,1.68,0,0,0-.72-.22l-4.77-.38,4.12-.38a3.36,3.36,0,0,0,2.14-1l.32-.39a2.93,2.93,0,0,0,.6-1.63Z" style="fill:#fff"></path></g><g id="freepik--Confetti--inject-70"><path d="M355.41,23.52s-7.51,5.17-3.54,11.84l-5.93.55s-2.68-12.61,6.35-14.54Z" ></path><path d="M283.88,471.68s-9.1.43-9.26,8.18l-5.32-2.66s4.38-12.13,13.07-9Z" ></path><path d="M460.9,187.24s-9.11.43-9.26,8.19l-5.32-2.66s4.38-12.13,13.07-9Z" ></path><path d="M55.34,57.48s8.21,4,12-2.79l3.41,4.87S61.16,68.14,55,61.26Z" ></path><path d="M59.62,235.12s9-1.3,8.43-9l5.55,2.13s-3.2,12.5-12.14,10.22Z" ></path><path d="M210.08,35.91a2.34,2.34,0,1,1-2.34-2.34A2.35,2.35,0,0,1,210.08,35.91Z" ></path><path d="M122.49,465.25a2.34,2.34,0,1,1-2.34-2.34A2.35,2.35,0,0,1,122.49,465.25Z" ></path><path d="M46.08,191.15a2.34,2.34,0,1,1-2.34-2.34A2.35,2.35,0,0,1,46.08,191.15Z" ></path><circle cx="422.26" cy="448.07" r="2.34" ></circle><path d="M438.51,54.69a2.35,2.35,0,1,1-2.34-2.34A2.34,2.34,0,0,1,438.51,54.69Z" ></path><path d="M452.31,246.22a2.34,2.34,0,1,1-2.34-2.35A2.34,2.34,0,0,1,452.31,246.22Z" ></path></g></svg>