<svg id="Layer_1" data-name="Layer 1" xmlns="http://www.w3.org/2000/svg"
    xmlns:xlink="http://www.w3.org/1999/xlink" viewBox="0 0 1073.82 293.91">
    <defs>
        <style>
            .cls-1{fill:url(#linear-gradient);}.cls-2{mask:url(#mask);}.cls-10,.cls-11,.cls-12,.cls-13,.cls-14,.cls-15,.cls-16,.cls-17,.cls-18,.cls-19,.cls-20,.cls-21,.cls-22,.cls-23,.cls-24,.cls-3,.cls-4,.cls-5,.cls-6,.cls-7,.cls-8,.cls-9{fill:"currentColor";}.cls-4{opacity:0.96;}.cls-5{opacity:0.92;}.cls-6{opacity:0.88;}.cls-7{opacity:0.83;}.cls-8{opacity:0.79;}.cls-9{opacity:0.75;}.cls-10{opacity:0.71;}.cls-11{opacity:0.67;}.cls-12{opacity:0.63;}.cls-13{opacity:0.59;}.cls-14{opacity:0.54;}.cls-15{opacity:0.5;}.cls-16{opacity:0.46;}.cls-17{opacity:0.42;}.cls-18{opacity:0.38;}.cls-19{opacity:0.34;}.cls-20{opacity:0.3;}.cls-21{opacity:0.25;}.cls-22{opacity:0.21;}.cls-23{opacity:0.17;}.cls-24{opacity:0.13;}</style>
        <linearGradient id="linear-gradient" x1="-29.54" y1="331.67" x2="1055.82" y2="331.67"
            gradientUnits="userSpaceOnUse">
            <stop offset="0" stop-color="#231f20" />
            <stop offset="0.07" stop-color="#383536" />
            <stop offset="0.2" stop-color="#706d6e" />
            <stop offset="0.4" stop-color="#c8c7c7" />
            <stop offset="0.51" stop-color="#fff" />
            <stop offset="0.54" stop-color="#ebeaeb" />
            <stop offset="0.63" stop-color="#afadae" />
            <stop offset="0.72" stop-color="#7d7a7b" />
            <stop offset="0.81" stop-color="#565354" />
            <stop offset="0.88" stop-color="#3a3637" />
            <stop offset="0.95" stop-color="#292526" />
            <stop offset="1" stop-color="#231f20" />
        </linearGradient>
        <mask id="mask" x="-11.54" y="-39.94" width="1085.36" height="371.31"
            maskUnits="userSpaceOnUse">
            <g transform="translate(18 -185.97)">
                <rect class="cls-1" x="-29.54" y="146.02" width="1085.36" height="371.31" />
            </g>
        </mask>
    </defs>
    <g class="cls-2">
        <path class="cls-3"
            d="M-5.28,240.89c.51.39,51.56,39.75,140.18,73.81,81.78,31.44,213.19,64.65,374.81,44.38,71.44-9,139.51-8.21,202.31,2.22,50.25,8.34,97.26,22.87,139.72,43.18,72.32,34.58,106.82,74.5,107.16,74.9l-.58.49c-.34-.4-34.76-40.21-107-74.73-66.63-31.85-180-65.57-341.56-45.3a789.13,789.13,0,0,1-212.68-1.92A762.44,762.44,0,0,1,134.59,315.4C45.88,281.3-5.24,241.88-5.75,241.49Z"
            transform="translate(18 -185.97)" />
        <path class="cls-4"
            d="M-3.26,245.79c.52.38,52.52,38.29,142,70.77,82.57,30,214.84,61.31,376.09,40.39,69.91-9.07,136.54-8.78,198,.85,49.52,7.76,95.92,21.57,137.9,41.06C920,431,955.24,468.24,961.6,475.38l.17.19-.26.25v.39c-.17,0-.21,0-.46-.34-6.35-7.12-41.5-44.27-110.61-76.35-95.39-44.27-208.28-58.35-335.53-41.84a811.85,811.85,0,0,1-212.85-.29,790,790,0,0,1-163.62-40.15C48.89,284.72-3.18,246.76-3.69,246.38Z"
            transform="translate(18 -185.97)" />
        <path class="cls-5"
            d="M-1.24,250.69c.53.37,53.47,36.83,143.79,67.73,83.35,28.51,216.48,58,377.37,36.4,69.19-9.27,135.11-9.32,195.94-.14,49.09,7.41,95.08,20.84,136.71,39.9,67.08,30.73,102.48,66.57,111.73,76.83l.34.37-.22.24v.38c-.16,0-.16,0-.63-.52-9.23-10.23-44.55-46-111.51-76.65C757.87,352,646.08,338.62,520,355.52a836.16,836.16,0,0,1-213,1.34,817.92,817.92,0,0,1-164.7-37.79C51.89,288.15-1.12,251.64-1.64,251.27Z"
            transform="translate(18 -185.97)" />
        <path class="cls-6"
            d="M.78,255.6c.54.35,54.43,35.36,145.6,64.67A859.13,859.13,0,0,0,525,352.69c68.62-9.5,134-9.85,194.21-1.06,48.72,7.1,94.35,20.19,135.63,38.91C921.51,420.75,957.55,457,967,467.44l.51.56-.2.23v.37c-.17,0-.17,0-.81-.7-9.44-10.38-45.4-46.59-111.93-76.74-93.51-42.39-204.36-55.11-329.46-37.8a861.79,861.79,0,0,1-213.2,3,850,850,0,0,1-165.78-35.43C54.9,291.57.94,256.52.41,256.17Z"
            transform="translate(18 -185.97)" />
        <path class="cls-7"
            d="M2.8,260.5c.55.34,55.39,33.9,147.4,61.63a890,890,0,0,0,379.93,28.43,750.57,750.57,0,0,1,110.56-7.85c207.79,1.2,308.64,98.46,329,120.77.35.38.63.68.69.73l-.19.22v.37c-.17,0-.17,0-1-.88-23.68-25.91-156.13-153.09-439-112.71a888.6,888.6,0,0,1-213.36,4.6A882.48,882.48,0,0,1,150,322.75C57.9,295,3,261.39,2.46,261.06Z"
            transform="translate(18 -185.97)" />
        <path class="cls-8"
            d="M4.83,265.41c.55.32,56.34,32.44,149.2,58.58,85.7,24.13,221.41,47.95,381.2,24.44,67.66-9.95,132-10.9,191.24-2.82,48,6.55,93,19.05,133.63,37.15,64,28.5,99.87,63.17,112.34,76.76.43.47.78.85.85.91l-.17.21V461c-.17,0-.17,0-1.14-1.06-12.44-13.56-48.26-48.16-112.13-76.61C768,342.42,658.8,330.88,535.32,349.05a916.35,916.35,0,0,1-213.53,6.23,917.54,917.54,0,0,1-168-30.7C60.91,298.42,5.07,266.27,4.51,266Z"
            transform="translate(18 -185.97)" />
        <path class="cls-9"
            d="M6.85,270.31c.56.31,57.3,31,151,55.54,86.49,22.66,223.05,44.61,382.48,20.45,67.23-10.19,131.12-11.42,189.9-3.67C778,348.92,822.6,361.15,862.92,379c61.27,27.07,96.62,59.61,112.24,76.6.52.56.93,1,1,1.08l-.15.19v.36c-.18,0-.18,0-1.31-1.23-15.58-17-50.86-49.43-112-76.46-91.08-40.25-199.5-51.22-322.26-32.62a946.12,946.12,0,0,1-213.7,7.86,955.74,955.74,0,0,1-169-28.33C63.91,301.84,7.13,271.15,6.56,270.84Z"
            transform="translate(18 -185.97)" />
        <path class="cls-10"
            d="M8.87,275.22c.57.29,58.26,29.51,152.82,52.48C249,348.91,386.37,369,545.44,344.17c66.83-10.42,130.3-11.94,188.64-4.51,47.41,6,91.74,18,131.76,35.56,45.1,19.78,84.89,46.92,112,76.4.6.66,1.08,1.17,1.18,1.25l-.13.18v.35c-.19,0-.19,0-1.47-1.39-27.1-29.43-66.82-56.52-111.85-76.27-90.32-39.61-198-50.05-320.08-31a977.63,977.63,0,0,1-213.88,9.49,995.82,995.82,0,0,1-170.11-26C66.92,305.26,9.18,276,8.61,275.73Z"
            transform="translate(18 -185.97)" />
        <path class="cls-11"
            d="M10.9,280.13c.58.28,59.21,28,154.62,49.43,88,19.74,226.33,37.93,385,12.48C617,331.38,680.06,329.59,738,336.71c47.11,5.79,91.13,17.5,130.85,34.79,44.8,19.51,84.5,46.56,111.78,76.18.69.74,1.23,1.33,1.35,1.41l-.12.17v.34c-.19,0-.24-.05-1.63-1.56-27.23-29.55-66.87-56.56-111.6-76-89.57-39-196.55-48.9-318-29.43a1011.41,1011.41,0,0,1-214,11.13,1040.93,1040.93,0,0,1-171.2-23.61C69.92,308.69,11.24,280.9,10.66,280.62Z"
            transform="translate(18 -185.97)" />
        <path class="cls-12"
            d="M12.92,285c.59.26,60.17,26.58,156.43,46.38,88.84,18.28,228,34.59,386.3,8.49,66.09-10.9,128.76-13,186.26-6.15,46.81,5.56,90.53,17,130,34.06,44.5,19.24,84.09,46.2,111.47,75.92.77.83,1.37,1.49,1.5,1.57l-.1.15v.34c-.19,0-.27-.08-1.78-1.71-32.67-35.46-160-147.72-427.22-103.67a1046.45,1046.45,0,0,1-214.22,12.75,1087.8,1087.8,0,0,1-172.28-21.24C72.92,312.11,13.3,285.77,12.71,285.51Z"
            transform="translate(18 -185.97)" />
        <path class="cls-13"
            d="M15,289.94c.6.25,61.12,25.12,158.23,43.34,89.62,16.82,229.61,31.25,387.57,4.5,65.74-11.14,128-13.47,185.13-6.95,46.53,5.31,90,16.53,129.07,33.32,44.84,19.26,83.26,45.42,111.12,75.65.84.92,1.51,1.64,1.65,1.73l-.09.14V442c-.2,0-.3-.11-1.92-1.87-27.81-30.18-66.17-56.3-111-75.53C786.65,326.77,681,317.9,560.84,338.26a1083.6,1083.6,0,0,1-214.4,14.38,1136,1136,0,0,1-173.37-18.88C75.92,315.53,15.36,290.64,14.76,290.4Z"
            transform="translate(18 -185.97)" />
        <path class="cls-14"
            d="M17,294.85c.61.24,62.09,23.65,160,40.29,90.4,15.36,231.25,27.91,388.85.51,65.4-11.37,127.32-14,184-7.75,46.24,5.08,89.38,16.06,128.2,32.61,31,13.25,75.47,37.08,110.71,75.36.93,1,1.66,1.8,1.81,1.88l-.07.13v.32c-.21,0-.36-.16-2.08-2-35.18-38.22-79.54-62-110.55-75.24-87.4-37.28-192.36-45.63-312-24.84a1121.94,1121.94,0,0,1-214.57,16,1188.59,1188.59,0,0,1-174.45-16.52c-98-16.64-159.5-40.07-160.11-40.31Z"
            transform="translate(18 -185.97)" />
        <path class="cls-15"
            d="M19,299.76C19.62,300,82,322,180.84,337,272,350.89,413.73,361.57,571,333.52,636,321.91,697.59,319,753.92,325c46,4.85,88.81,15.59,127.34,31.91,30.85,13.07,75,36.7,110.28,75.05a22.39,22.39,0,0,0,2,2l-.06.12v.31c-.22,0-.46-.25-2.22-2.17C956,393.94,911.9,370.34,881.1,357.29c-86.7-36.73-191-44.58-310.06-23.35A1163.05,1163.05,0,0,1,360.6,351.62l-4.3,0a1246.56,1246.56,0,0,1-175.54-14.15c-98.84-15.06-161.29-37-161.91-37.26Z"
            transform="translate(18 -185.97)" />
        <path class="cls-16"
            d="M21,304.67c.62.21,64,20.72,163.64,34.19,92,12.43,234.53,21.22,391.4-7.48,64.75-11.84,126-15,181.91-9.31,45.69,4.62,88.25,15.12,126.49,31.22a339.72,339.72,0,0,1,76.85,44.43,254.19,254.19,0,0,1,33,30.29,22.78,22.78,0,0,0,2.11,2.18l0,.4c-.23,0-.51-.29-2.36-2.3-33.14-36.1-120-107.72-287.32-108.69-39-.23-82.4,3.38-130.52,12.19a1208.25,1208.25,0,0,1-214.91,19.27,1307.15,1307.15,0,0,1-176.62-11.8c-99.69-13.47-163.08-34-163.71-34.2Z"
            transform="translate(18 -185.97)" />
        <path class="cls-17"
            d="M23.05,309.58c.64.19,65,19.26,165.46,31.14,92.75,11,236.16,17.88,392.66-11.46,64.45-12.09,125.31-15.49,180.89-10.1,45.43,4.39,87.7,14.67,125.65,30.54a334.19,334.19,0,0,1,76.35,44,254.38,254.38,0,0,1,33,30.36,23.78,23.78,0,0,0,2.25,2.33l0,.37c-.23,0-.56-.34-2.49-2.45C964,388.6,878.3,317.92,713.38,317c-39.41-.23-83.31,3.51-132.14,12.67a1254.83,1254.83,0,0,1-215.08,20.9,1375.86,1375.86,0,0,1-177.71-9.43c-100.53-11.89-164.87-31-165.51-31.16Z"
            transform="translate(18 -185.97)" />
        <path class="cls-18"
            d="M719.88,314q23.7.14,46.28,2.22c45.16,4.18,87.16,14.23,124.82,29.87a328.67,328.67,0,0,1,75.84,43.64,253.56,253.56,0,0,1,33,30.41,23,23,0,0,0,2.39,2.47l0,.35c-.25,0-.63-.39-2.63-2.58C967.13,385,882.66,315.25,720.08,314.31c-39.78-.24-84.21,3.65-133.73,13.16A1303.57,1303.57,0,0,1,371.09,350a1446,1446,0,0,1-178.79-7.07C90.92,332.63,25.64,315,25,314.83l.09-.34c.65.18,65.91,17.79,167.26,28.09,93.54,9.51,237.81,14.54,393.94-15.46C632.94,318.16,677.69,313.78,719.88,314Z"
            transform="translate(18 -185.97)" />
        <path class="cls-19"
            d="M726.88,311.36q22.2.12,43.4,2c44.89,4,86.61,13.78,124,29.21a322.83,322.83,0,0,1,75.33,43.24,253.42,253.42,0,0,1,32.92,30.45,23.66,23.66,0,0,0,2.54,2.62l0,.32c-.27,0-.79-.56-2.76-2.72-32-35.06-115.27-103.89-275.53-104.82-40.15-.24-85.09,3.78-135.31,13.66C522.65,338.85,450.17,347,376,349.47a1521.49,1521.49,0,0,1-179.87-4.7C93.92,336.05,27.69,319.88,27,319.72l.08-.32c.66.16,66.87,16.33,169.06,25,34.08,2.91,74.82,5.17,120.27,5.44,80.34.47,175.46-5.32,274.94-24.89C638.79,315.67,684.18,311.11,726.88,311.36Z"
            transform="translate(18 -185.97)" />
        <path class="cls-20"
            d="M733.84,308.68q20.74.12,40.58,1.77c44.63,3.74,86.07,13.35,123.17,28.55a317.58,317.58,0,0,1,74.82,42.85,251.77,251.77,0,0,1,32.87,30.48,22.23,22.23,0,0,0,2.68,2.76v.3c-.28,0-.87-.64-2.89-2.86-39.71-43.61-159-139.61-408.51-89.37C527.92,337,455.38,345.65,380.94,348.94a1602.82,1602.82,0,0,1-181-2.34c-103.06-7.13-170.24-21.85-170.9-22l.06-.29c.67.15,67.82,14.86,170.87,22,95.1,6.58,241.09,7.85,396.48-23.44C644.63,313.17,690.66,308.42,733.84,308.68Z"
            transform="translate(18 -185.97)" />
        <path class="cls-21"
            d="M740.76,306q19.31.11,37.81,1.57c44.37,3.52,85.54,12.91,122.36,27.9a312.17,312.17,0,0,1,74.3,42.46,250.68,250.68,0,0,1,32.81,30.5,21.38,21.38,0,0,0,2.82,2.9v.27c-.29,0-.91-.67-3-3C968.44,365.22,850,269.84,601.65,321c-68.47,14.1-141.07,23.33-215.78,27.41a1692.93,1692.93,0,0,1-182,0c-103.91-5.54-172-18.81-172.7-18.94l.05-.27c.68.13,68.78,13.4,172.67,18.94,95.89,5.12,242.73,4.51,397.76-27.43C650.46,310.67,697.1,305.73,740.76,306Z"
            transform="translate(18 -185.97)" />
        <path class="cls-22"
            d="M747.65,303.29q17.9.1,35.08,1.39c44.12,3.3,85,12.47,121.56,27.25A306.63,306.63,0,0,1,978.07,374a245.75,245.75,0,0,1,32.73,30.51,21.41,21.41,0,0,0,3,3v.24c-.31,0-1-.75-3.14-3.12C971.54,361.51,854,266.75,606.75,318.84c-68.3,14.39-141,24.16-215.95,29.05a1793.27,1793.27,0,0,1-183.14,2.38c-104.75-4-173.81-15.78-174.5-15.9l0-.24c.69.12,69.74,11.94,174.48,15.89,17.41.66,36.5,1.12,57,1.24,93.16.54,215.26-5.94,342.06-32.66C656.28,308.16,703.53,303,747.65,303.29Z"
            transform="translate(18 -185.97)" />
        <path class="cls-23"
            d="M754.5,300.58q16.51.09,32.41,1.21c43.86,3.09,84.49,12,120.75,26.62a300.94,300.94,0,0,1,73.26,41.67,244.12,244.12,0,0,1,32.64,30.52,20.55,20.55,0,0,0,3.1,3.17V404c-.32,0-1.09-.84-3.26-3.25-38.76-42.93-155.46-137.07-401.55-84.06-68.14,14.68-140.85,25-216.13,30.68-60.21,4.54-122.2,6.13-184.22,4.74-105.59-2.37-175.6-12.74-176.3-12.84l0-.22c.7.11,70.7,10.47,176.28,12.84,9.91.23,20.35.38,31.26.44,96.46.57,230.42-6,369-35.85C662.09,305.64,709.94,300.32,754.5,300.58Z"
            transform="translate(18 -185.97)" />
        <path class="cls-24"
            d="M746.39,298c-38.46.92-81.45,6-129.44,16.55-68,15-140.75,25.83-216.3,32.3-59.4,5.09-120.65,7.48-182.08,7.13l-3.22,0c-106.45-.78-177.4-9.7-178.11-9.79l0-.19c.7.09,71.65,9,178.08,9.79l3.08,0c98.26.58,246.16-5.89,398.48-39.42C662.3,304.35,705.67,298.88,746.39,298ZM922,329.47a291.16,291.16,0,0,1,61.84,36.71,242.26,242.26,0,0,1,32.53,30.51c1.73,1.92,3,3.31,3.24,3.31v.19c-.33,0-1.12-.87-3.38-3.37C996.93,375.42,966.69,349.44,922,329.47Z"
            transform="translate(18 -185.97)" />
        <path class="cls-23"
            d="M757.32,293q16.14.09,31.7,1.17c44,3,84.9,12,121.6,26.6A310.73,310.73,0,0,1,985,362.52a251.11,251.11,0,0,1,33.25,30.42,21.08,21.08,0,0,0,3,3l0,.22c-.3,0-1-.81-3.17-3.1-31.21-33.73-111.06-98.92-261.78-99.8-41.78-.24-89,4.45-142.13,16.12C546.56,324.27,474,334.94,398.55,341.14c-60.36,5-122.72,7.09-185.32,6.31-106.6-1.32-177.91-10.71-178.62-10.8l0-.22c.71.09,72,9.49,178.59,10.8,4.17,0,8.45.09,12.79.12,98.27.57,241.48-5.94,388.11-38.15C664.45,298.15,712.47,292.71,757.32,293Z"
            transform="translate(18 -185.97)" />
        <path class="cls-22"
            d="M753.32,288.09q17.14.11,33.71,1.3c44.37,3.22,85.85,12.4,123.28,27.27a326.47,326.47,0,0,1,76,42.26,262.39,262.39,0,0,1,33.88,30.29A23.65,23.65,0,0,0,1023,392l0,.24c-.27,0-.91-.7-2.92-2.82-32.4-34.1-114.8-100.14-267.14-101-41.78-.24-88.79,4.41-141.5,16-67.26,14.75-139.58,25.23-214.94,31.16-60.29,4.74-122.65,6.59-185.35,5.51C104.35,339.12,32.7,329.25,32,329.15l0-.24c.71.1,72.35,10,179.1,11.81,7.17.13,14.63.22,22.32.26,98,.57,236.69-6,377.91-36.92C661,293.18,708.62,287.83,753.32,288.09Z"
            transform="translate(18 -185.97)" />
        <path class="cls-21"
            d="M749.3,283.2q18.23.1,35.83,1.45c44.78,3.4,86.84,12.82,125,28a342.81,342.81,0,0,1,77.64,42.77,271.84,271.84,0,0,1,34.42,30.1,22.88,22.88,0,0,0,2.5,2.43l0,.27c-.24,0-.82-.64-2.64-2.51-33.56-34.5-118.5-101.4-272.47-102.3-41.78-.24-88.62,4.37-140.93,15.81-66.91,14.64-139,24.93-214.26,30.58-60.21,4.52-122.58,6.11-185.37,4.71-106.91-2.37-178.92-12.72-179.64-12.83l0-.27c.72.11,72.71,10.45,179.61,12.83,98.66,2.2,248.07-2.15,399.56-35.28C657.58,288.2,704.76,282.94,749.3,283.2Z"
            transform="translate(18 -185.97)" />
        <path class="cls-20"
            d="M745.28,278.31q19.35.1,38.06,1.6,5.08.4,10.12.92c-52.93-5.23-115.2-2.56-187.61,13.25-66.56,14.53-138.42,24.62-213.58,30-60.14,4.31-122.51,5.63-185.4,3.92C99.8,325.09,27.44,314.26,26.72,314.15l.05-.29c.72.11,73.06,10.93,180.12,13.84,98.8,2.68,248.2-1,398.89-33.91C654.15,283.23,700.91,278.05,745.28,278.31ZM916,311A356.58,356.58,0,0,1,989.42,352a279.67,279.67,0,0,1,34.83,29.85,23.92,23.92,0,0,0,2.18,2.09l-.08.29A14.23,14.23,0,0,1,1024,382C1004.92,362.78,969.78,333.55,916,311Z"
            transform="translate(18 -185.97)" />
        <path class="cls-19"
            d="M741.25,273.42q20.55.12,40.46,1.78c45.67,3.82,89,13.77,128.71,29.56,31.76,12.63,77.65,35.6,115.91,73.39a21.72,21.72,0,0,0,1.83,1.73l-.11.31a14.09,14.09,0,0,1-2-1.81c-28.27-27.92-120.32-103.64-285.43-104.6-41.27-.24-87.06,4.18-137.6,15.19-66.2,14.42-137.83,24.32-212.9,29.43-60.06,4.09-122.44,5.14-185.42,3.12C97.53,318.08,24.82,306.77,24.1,306.66l0-.32c.72.11,73.41,11.41,180.62,14.85,98.94,3.17,248.35.1,398.23-32.54C650.73,278.25,697.06,273.16,741.25,273.42Z"
            transform="translate(18 -185.97)" />
        <path class="cls-18"
            d="M737.22,268.52q21.85.12,43.07,2c46.17,4.06,90.15,14.32,130.7,30.49,45.73,18.23,87.45,44.34,117.46,73.52.78.74,1.33,1.28,1.44,1.34l-.16.32a14.13,14.13,0,0,1-1.52-1.41c-36.27-35.26-174.33-146-427.92-90.91-65.84,14.3-137.24,24-212.22,28.85A1838.53,1838.53,0,0,1,202.64,315c-107.39-4-180.45-15.75-181.17-15.87l.05-.35c.73.12,73.77,11.9,181.13,15.87,99.09,3.66,248.49,1.23,397.57-31.17C647.31,273.28,693.22,268.26,737.22,268.52Z"
            transform="translate(18 -185.97)" />
        <path class="cls-17"
            d="M733.17,263.62q23.36.13,46,2.24a475,475,0,0,1,132.86,31.56c65.21,26.15,104.64,60.11,118.57,73.5.51.49.91.88,1,.93l-.2.32a10.93,10.93,0,0,1-1.06-1c-13.91-13.37-53.3-47.3-118.45-73.41-93.66-37.56-199.44-44-314.4-19C532,292.94,460.86,302.46,386,307a1813.22,1813.22,0,0,1-185.46,1.53c-107.54-4.5-181-16.76-181.69-16.89l.07-.37c.73.12,74.12,12.38,181.64,16.88,99.23,4.15,248.63,2.35,396.89-29.8C643.89,268.3,689.37,263.37,733.17,263.62Z"
            transform="translate(18 -185.97)" />
        <path class="cls-16"
            d="M729.12,258.72q25.15.15,49.61,2.56A487.26,487.26,0,0,1,914,294.21c68.32,27.68,108.23,63,118.83,73.16l.5.47-.25.32-.53-.5c-10.59-10.15-50.45-45.42-118.7-73.08-96.07-38.92-203.44-46-319.13-20.95C529.61,287.72,458.66,297,383.88,301.34a1791.8,1791.8,0,0,1-185.48.72C90.7,297,16.94,284.3,16.2,284.17l.07-.4c.74.12,74.48,12.86,182.15,17.89,99.37,4.64,248.78,3.47,396.23-28.42C640.48,263.32,685.53,258.47,729.12,258.72Z"
            transform="translate(18 -185.97)" />
        <path class="cls-15"
            d="M724.94,253.8c199.79,1.17,308.85,108.72,310.15,110l-.31.31c-1.56-1.58-159-156.87-442.82-95.62-64.78,14-135.49,23.11-210.18,27.13a1771.29,1771.29,0,0,1-185.5-.07C88.43,290,14.31,276.8,13.57,276.67l.08-.43c.74.14,74.83,13.35,182.66,18.91,99.51,5.13,248.91,4.6,395.56-27C639.89,257.73,684.29,253.57,724.94,253.8Z"
            transform="translate(18 -185.97)" />
        <path class="cls-14"
            d="M721,248.89c201.13,1.17,314.83,109.56,315.88,111l-.37.28c-.27-.34-40.52-39.64-118.35-71.78-69.51-28.72-183-56.35-328.93-24.93-64.42,13.87-134.9,22.81-209.5,26.56a1754.45,1754.45,0,0,1-185.52-.87C86.15,283,11.68,269.31,10.94,269.17l.09-.45c.74.14,75.18,13.83,183.16,19.92,99.66,5.61,249.06,5.72,394.89-25.68A608.66,608.66,0,0,1,721,248.89Z"
            transform="translate(18 -185.97)" />
        <path class="cls-13"
            d="M716.94,244a553.79,553.79,0,0,1,58.38,3.41,531.58,531.58,0,0,1,142,36.07,489.26,489.26,0,0,1,89.56,47.73c20,13.63,31.3,24,31.64,24.62l-.42.25c-.22-.32-42.05-40-121.39-72.32C846.08,255,731.41,227.15,586.4,258.3c-64.06,13.76-134.32,22.5-208.81,26A1730.74,1730.74,0,0,1,192,282.61C83.88,276,9.06,261.82,8.31,261.68l.09-.48c.75.14,75.54,14.31,183.68,20.92,99.79,6.11,249.2,6.85,394.22-24.3A605,605,0,0,1,716.94,244Z"
            transform="translate(18 -185.97)" />
        <path class="cls-12"
            d="M712.87,239.1a559.37,559.37,0,0,1,59.75,3.53A547.89,547.89,0,0,1,916.33,279a512.21,512.21,0,0,1,91.47,48c21.29,14.24,32.29,24.32,32.5,24.83l-.47.22c-.49-.76-11.89-11-32.85-25a511.76,511.76,0,0,0-91.52-47.85c-71.83-28.93-187.71-56.94-331.83-26.05-63.71,13.65-133.74,22.2-208.14,25.4a1710.47,1710.47,0,0,1-185.57-2.46C81.6,269,6.43,254.33,5.68,254.18l.1-.51c.75.15,75.89,14.79,184.18,21.94,99.94,6.6,249.34,8,393.56-22.93A600.49,600.49,0,0,1,712.87,239.1Z"
            transform="translate(18 -185.97)" />
        <path class="cls-11"
            d="M708.8,234.19a564.12,564.12,0,0,1,206.49,40.38c79.78,31.91,126.36,71.94,126.74,73.3l-.26.07-.25.11c-1.19-2-48-41.76-127.32-73.33-73-29.06-190.08-57.27-333.35-26.64C517.5,261.62,447.7,270,373.39,272.91a1693.73,1693.73,0,0,1-185.59-3.27C79.33,262,3.8,246.83,3.05,246.68l.11-.53c.75.15,76.25,15.27,184.69,23,100.08,7.09,249.48,9.1,392.88-21.55A595.67,595.67,0,0,1,708.8,234.19Z"
            transform="translate(18 -185.97)" />
        <path class="cls-10"
            d="M704.74,229.23a573.32,573.32,0,0,1,154.53,22.2c78.37,22.36,134.46,56.11,160.92,74.24,14.43,9.89,23.45,17.5,23.57,18.21l-.57.09.28,0-.26.1c-1-1.89-49.36-42-130.23-73.81A580.87,580.87,0,0,0,578.07,243c-63,13.43-132.57,21.59-206.77,24.25a1677.79,1677.79,0,0,1-185.62-4.06C77.05,255,1.17,239.34.42,239.18l.12-.55c.75.15,76.6,15.75,185.19,24C286,270.17,435.36,272.82,578,242.41A589.85,589.85,0,0,1,704.74,229.23Z"
            transform="translate(18 -185.97)" />
        <path class="cls-9"
            d="M700.69,224.36q21.51.12,42.94,1.85a594.1,594.1,0,0,1,138,28.07c85.65,28.24,140.55,67.13,155.34,78.38.34.26,8.41,6.41,8.46,7.24l-.3,0-.28.09c-1-1.85-49.36-41.67-133.14-74.29-75.34-29.34-194.88-58-336.47-27.87-62.64,13.33-132,21.3-206.09,23.68a1662.45,1662.45,0,0,1-185.64-4.85c-108.79-8.75-185-24.83-185.77-25l.12-.59c.76.16,77,16.24,185.71,25,100.36,8.07,249.76,11.35,391.55-18.81A586.77,586.77,0,0,1,700.69,224.36Z"
            transform="translate(18 -185.97)" />
        <path class="cls-8"
            d="M696.59,219.45q26.92.15,53.84,2.81A612.35,612.35,0,0,1,895.1,254.84c95.29,33.85,148.91,78,149.44,78.4,2.67,2.23,2.67,2.5,2.66,2.67h-.31l-.3.08c-.86-1.74-51.27-42.11-136-74.76-76.52-29.48-197.28-58.35-338-28.49-62.29,13.22-131.4,21-205.42,23.11a1645.62,1645.62,0,0,1-185.66-5.66C72.5,240.92-4.08,224.36-4.84,224.19l.13-.61c.76.17,77.31,16.72,186.21,26C282,258.13,431.41,262,572.39,232.13A581.15,581.15,0,0,1,696.59,219.45Z"
            transform="translate(18 -185.97)" />
        <path class="cls-7"
            d="M692.49,214.53a586.57,586.57,0,0,1,59.27,3.35,631.6,631.6,0,0,1,148.35,34.71c84.3,30.68,138.7,69.85,147.65,77.91,1.11,1,1.18,1.22,1.16,1.43l-.32,0-.31.08c-.81-1.71-51.6-41.93-138.93-75.23C831.67,227.11,709.69,198,569.74,227.63,507.81,240.74,438.92,248.32,365,250.16a1634.13,1634.13,0,0,1-185.68-6.45c-109.1-9.8-186-26.85-186.79-27l.14-.63c.76.17,77.66,17.2,186.72,27,100.65,9,250,13.6,390.21-16.07A577.15,577.15,0,0,1,692.49,214.53Z"
            transform="translate(18 -185.97)" />
        <path class="cls-6"
            d="M688.39,209.61a595.67,595.67,0,0,1,62.41,3.66A650.05,650.05,0,0,1,901.64,249.1c88.58,32.38,143.13,72.81,148.3,77.79.64.62.74.84.7,1.05l-.67-.12a.28.28,0,0,0,0,.13c-1.31-2.87-57.21-43.76-141.8-75.7-78.87-29.77-202.09-59.1-341.22-29.73-61.58,13-130.23,20.38-204,21.95a1616.5,1616.5,0,0,1-185.71-7.25C67.94,226.89-9.34,209.37-10.11,209.2l.16-.67c.76.18,78,17.69,187.22,28,100.8,9.53,250.19,14.72,389.55-14.7A572.52,572.52,0,0,1,688.39,209.61Z"
            transform="translate(18 -185.97)" />
        <path class="cls-5"
            d="M684.29,204.68a603.37,603.37,0,0,1,64.69,3.9,669.35,669.35,0,0,1,152.91,36.55c90.48,33,145.78,73.63,150,77.92.44.44.56.67.51.9l-.69-.16a.17.17,0,0,0,0,.14c-1.25-2.83-57.83-43.68-144.69-76.16-80-29.92-204.48-59.48-342.81-30.36C503,230.3,434.54,237.49,360.81,238.79a1603.93,1603.93,0,0,1-185.73-8c-109.41-10.86-187-28.86-187.82-29l.16-.69c.77.18,78.37,18.17,187.74,29,100.93,10,250.33,15.84,388.88-13.32A567.28,567.28,0,0,1,684.29,204.68Z"
            transform="translate(18 -185.97)" />
        <path class="cls-4"
            d="M-15.2,193.49c.78.18,78.72,18.65,188.25,30,101.07,10.51,250.47,17,388.2-11.95,59.63-12.52,122-15.12,185.52-7.73,51.37,6,103.45,18.47,154.8,37.1,87.32,31.7,146.66,72.3,152.11,78.17.3.32.47.58.4.84l-.71-.2a.24.24,0,0,0,0,.15c-1.19-2.79-58.49-43.63-147.56-76.62-81.21-30.07-206.88-59.87-344.41-31-60.86,12.77-129.06,19.77-202.69,20.8-58.91.82-121.4-2.15-185.75-8.84C63.39,212.86-14.59,194.39-15.37,194.2Z"
            transform="translate(18 -185.97)" />
        <path class="cls-3"
            d="M-17.82,186c.78.18,79.08,19.13,188.75,31.05,101.22,11,250.61,18.09,387.54-10.58,59.39-12.43,121.94-14.9,185.91-7.34,51.76,6.12,104.44,18.76,156.58,37.57,90.46,32.63,150.11,73.52,154.5,78.48.23.26.43.54.33.82l-.72-.25a.23.23,0,0,0,0,.17c-1.15-2.76-59.19-43.6-150.43-77.08-82.39-30.22-209.29-60.25-346-31.62-60.51,12.66-128.48,19.47-202,20.23-58.83.6-121.33-2.65-185.77-9.65C61.11,205.85-17.22,186.89-18,186.7Z"
            transform="translate(18 -185.97)" />
    </g>
</svg>