<svg 
id="Layer_1" 
data-name="Layer 1" 
xmlns="http://www.w3.org/2000/svg" 
fill="currentColor"
viewBox="0 0 5000 2916" >
    <path
        d="M3728.78,0c-9.8,756.71-267.22,1467.59-1239.09,1346.26C1465.14,1218.35,969.62,2061.56,721.22,2916H720c248.5-855,744.35-1699,1769.9-1570.94C3460.59,1466.25,3717.76,756.1,3727.57,0Z" />
    <path
        d="M3690.81,0c44.75,723-176.21,1396.17-1193.06,1308.37C1388.63,1212.6,924.15,2063.18,715,2916h-1.23c209.27-853.38,674-1704.69,1784.18-1608.83C3513.53,1394.87,3734.29,722.44,3689.59,0Z" />
    <path
        d="M3660.08,0c94.66,689.46-96,1325.92-1154.26,1270.48C1309.56,1207.81,880.41,2064.91,711.93,2916h-1.22c168.53-851.66,597.92-1709.45,1795.22-1646.73C3562.93,1324.65,3753.38,688.85,3658.81,0Z" />
    <path
        d="M3636.91,0c139.38,656-27.21,1256.93-1123,1232.59C1227.77,1204,838.45,2066.68,712.18,2916H711c126.31-849.88,515.83-1713.21,1803-1684.62C3608.43,1255.69,3774.87,655.38,3635.62,0Z" />
    <path
        d="M3621.67,0c178.46,622.65,29.49,1189.3-1099.73,1194.7C1143.1,1201.29,798.62,2068.45,716,2916h-1.21c82.64-848.12,427.3-1715.91,1807.2-1722.51C3649.79,1188.1,3798.56,622.07,3620.27,0Z" />
    <path
        d="M3614.24,0C3825.61,589.55,3688.08,1123.15,2530,1156.81,1055.42,1199.67,761.16,2070.13,723.51,2916H722.3C760,2069.56,1054.39,1198.5,2530,1155.6,3686.61,1122,3824,589,3612.82,0Z" />
    <path
        d="M3615.19,0c237.68,556.77,105.07,1058.58-1077.14,1118.92C964.58,1199.22,726.54,2071.64,735,2916h-1.21c-8.5-844.93,229.72-1717.93,1804.2-1798.29C3718.7,1057.45,3851.14,556.21,3613.68,0Z" />
    <path
        d="M3624.55,0c256.88,524.39,122.76,995.73-1078.45,1081C956.89,1193.87,717.06,1984.82,744,2785.37q2.21,65.33,6.6,130.63h-1.21q-4.3-65.2-6.59-130.55c-27-801.15,213-1592.71,1803.22-1705.63C3745.66,994.64,3879.59,523.85,3623,0Z" />
    <path
        d="M3641.88,0c268.43,492.48,126.93,934.74-1087.72,1043.13C959.34,1185.45,707.49,1899,746.62,2651.31c4.58,88,13.14,176.5,24,264.69h-1.22c-10.85-88.16-19.4-176.64-24-264.59C706.25,1898.5,958.26,1184.33,2554.09,1041.93,3767.07,933.69,3908.36,492,3640.2,0Z" />
    <path
        d="M3667.28,0c271.94,461.18,117.12,875.76-1105.07,1005.24C961.06,1174.87,695.34,1823.77,743.94,2529.91c8.78,127.65,27.84,257.18,51.14,386.09h-1.24c-23.28-128.86-42.33-258.34-51.11-386C694.08,1823.26,960,1173.77,2562.12,1004,3782.59,874.74,3937.17,460.67,3665.5,0Z" />
    <path
        d="M3700.37,0c267.14,430.59,93.46,818.92-1130.11,967.35C961.53,1162.5,681,1757.48,736.89,2420.42c13.72,162.72,47.7,329.55,87.29,495.58h-1.25c-39.56-166-73.52-332.73-87.24-495.43C679.75,1757,960.43,1161.43,2570.16,966.15,3792,817.93,3965.36,430.1,3698.49,0Z" />
    <path
        d="M3739.71,0c253.77,400.85,56.88,764.39-1161.4,929.46C960.55,1148.65,664.82,1698.61,726.25,2321.66,745.35,2515.27,798.92,2716,858,2916h-1.27c-59.09-199.95-112.62-400.58-131.71-594.18-61.5-623.71,234.38-1174.23,1853.13-1393.56C3794.66,763.44,3991.24,400.37,3737.72,0Z" />
    <path
        d="M3785.12,0c232,372.1,7.53,712.28-1198.76,891.56-1628.28,242-1939.31,754.29-1873.71,1340.79,24.71,220.82,102.78,452.2,184.06,683.65h-1.3c-81.24-231.36-159.25-462.65-184-683.47C645.77,1645.36,957,1132.52,2586.22,890.37,3790.67,711.36,4014.81,371.65,3783,0Z" />
    <path
        d="M3834.19,0c202.13,344.49-52.61,662.75-1239.78,853.67C954.16,1117.46,627.9,1598.12,696.59,2151.28c29.19,235,129.67,483.24,231,733.45L940.21,2916h-1.33l-12.45-30.78c-101.32-250.27-201.83-498.53-231-733.75-68.77-553.83,257.64-1035,1898.87-1299C3779.55,661.86,4033.9,344.05,3832,0Z" />
    <path
        d="M3885.38,0c164.75,318.18-122,615.91-1282.92,815.78-1653.6,284.7-1994.9,738.75-1924,1261.55,31.62,233.13,145.18,480,260.93,731.57Q964,2862.32,988.46,2916h-1.34q-24.25-53.4-48.81-106.56c-115.79-251.68-229.38-498.61-261-731.9-71-523.49,270.46-978.09,1925-1262.95C3761.29,615.05,4047.63,317.75,3883.07,0Z" />
    <path
        d="M3936.28,0c121,293.29-198.29,571.83-1325.77,777.89C942.3,1082.77,586.16,1514.37,658.64,2009.54c33.72,230.39,160.19,474.6,290.49,726.2,30.92,59.7,62,119.82,92.21,180.26H1040c-30.07-60.25-61.09-120.16-91.91-179.67-130.35-251.7-256.87-496-290.62-726.57-72.58-495.87,283.73-928,1952.89-1233.06C3735.91,571,4054.66,292.88,3933.85,0Z" />
    <path
        d="M3983.63,0c72.24,269.94-277.89,530.53-1365.08,740-1684,324.45-2054.72,737.05-1981.21,1207.07,35.51,227,174.64,467.55,319.52,718,47.79,82.61,96.2,166.31,141.72,250.95h-1.39c-45.42-84.43-93.7-167.91-141.37-250.31-144.94-250.54-284.13-491.14-319.67-718.39-73.62-470.71,297.29-883.85,1982.22-1208.49C3703.65,529.71,4053.22,269.54,3981.1,0Z" />
    <path
        d="M4025.28,0c20.46,248.22-358.22,492-1398.68,702.1-1700.82,343.49-2085.93,740-2011.8,1187.1,37,223.25,188.52,459.2,347.92,707.45,67,104.29,135.31,210.75,197.15,319.35h-1.42c-61.73-108.37-129.93-214.6-196.75-318.67-159.47-248.35-311-484.4-348.09-707.89-74.25-447.79,311-844.83,2012.8-1188.52C3665,491.17,4043.06,247.83,4022.66,0Z" />
    <path
        d="M4057.58,0c-32,228.12-434.92,456.06-1422.93,664.21C916,1026.3,516.77,1409.18,591.2,1835.31c38.28,219.17,201.82,449.86,375.63,695.05C1055.2,2655,1146.21,2783.44,1224.78,2916h-1.43c-78.47-132.3-169.31-260.48-257.52-384.92C791.94,2285.78,628.34,2055,590,1835.57,515.45,1408.72,914.87,1025.31,2634.44,663,3620.56,455.27,4022.93,227.74,4055.14,0Z" />
    <path
        d="M4078.06,0C3994.9,209.65,3573.4,422.59,2642.7,626.32,905.39,1006.6,492.21,1377.93,566.68,1784.89c39.32,214.86,214.53,439.76,402.6,681.16,111.93,143.68,228.41,293.2,323.52,449.95h-1.43c-95-156.47-211.3-305.74-323.06-449.18-188.15-241.51-363.45-466.52-402.82-681.66-74.6-407.68,338.74-779.53,2077-1160C3571.33,421.82,3991.75,209.27,4074.94,0Z" />
    <path
        d="M4083.58,0C3953.1,192.7,3520.36,391.34,2650.74,588.43,893.94,986.58,467.05,1348.12,541.36,1737.5c40.17,210.43,226.68,429.11,428.81,666.08,137.54,161.27,282.27,331,393.1,512.42h-1.46c-110.72-181.11-255.23-350.59-392.57-511.61C767,2167.29,580.39,1948.5,540.17,1737.77,465.72,1347.68,892.78,985.61,2650.52,587.25,3518.3,390.58,3950.11,192.34,4080.6,0Z" />
    <path
        d="M4075.65,0c-172.5,177.12-611.09,362-1416.86,550.53-1777,415.72-2217.45,769-2143.45,1142.21,40.84,205.94,238.28,418.07,454.25,650.1,165.08,177.36,340.91,366.37,466,573.16h-1.47c-125-206.46-300.58-395.2-465.44-572.31C752.6,2111.52,555.06,1899.28,514.16,1693,440,1319.1,880.61,965.3,2658.56,549.36,3462.53,361.28,3900.06,176.77,4072.44,0Z" />
    <path
        d="M4050.19,0c-207,162.75-642.89,334.3-1383.36,512.64C869,945.68,415.15,1292,488.71,1650.31c41.36,201.42,249.34,406.76,478.9,633.41C1162,2475.65,1371.83,2682.88,1509.17,2916h-1.48c-137.26-232.77-346.79-439.72-540.94-631.41-229.7-226.78-437.8-432.23-479.22-634-73.71-359,380.25-705.88,2179.06-1139.13C3405.26,333.55,3840.4,162.39,4047.18,0Z" />
    <path
        d="M4009.59,0c-233.23,149.34-660.08,307.84-1334.71,474.75C855.52,924.87,388.5,1265.41,461.54,1609.93c41.74,196.91,259.88,395.29,502.78,616.18,225.36,204.94,471.94,429.28,618.95,689.89h-1.47c-147-260.23-393.23-484.29-618.31-689-243-221-461.31-419.52-503.13-616.8C387.18,1265,854.35,923.93,2674.63,473.58,3347.54,307.1,3773.3,149,4006.24,0Z" />
    <path
        d="M3952.72,0c-250.37,136.69-660.41,282.31-1269.79,436.86-1841.39,467-2321.47,802.73-2249,1134.5,42,192.44,269.92,383.74,525.89,598.58,257.77,216.36,543.89,456.61,697.53,746.06h-1.48c-153.6-289-439.37-529-696.85-745.12-256.12-215-484.17-406.39-526.27-599.22-72.59-332.5,407.66-668.72,2250-1136C3290.36,281.57,3699.36,136.34,3949.34,0Z" />
    <path
        d="M3883.15,0C3624.24,124.59,3236.29,257.44,2691,399,827.06,882.7,334,1214.46,405.8,1534.39c42.19,188,279.5,372.19,548.25,580.73,291.49,226.19,619.86,481.08,776.7,800.88h-1.48c-156.82-319.37-484.82-574-776-799.91C684.36,1907.42,446.9,1723.15,404.63,1534.7,332.7,1214,825.88,881.77,2690.71,397.8,3234.36,256.71,3621.3,124.24,3879.74,0Z" />
    <path
        d="M3803.59,0C3543.89,112.84,3181.83,233.06,2699,361.07,812.12,861.36,306.28,1189.93,377.34,1498.85c42.26,183.73,288.6,360.69,569.84,562.73C1273.51,2296,1646.71,2564.2,1803,2916h-1.42c-156.31-351.34-529.13-619.24-855.13-853.43C665,1860.4,418.52,1683.31,376.16,1499.16,304.93,1189.51,810.94,860.44,2698.75,359.91,3179.92,232.33,3541,112.5,3800.16,0Z" />
    <path
        d="M3713.31,0c-252.42,101.3-583.69,208.89-1006.25,323.18C796.76,839.89,278.2,1165.94,348.53,1464.58c42.26,179.49,297.28,349.29,590.71,544.67,362.15,241.12,782.68,521.21,934.52,906.75h-1.41c-151.88-385.05-572-664.85-933.81-905.74-293.63-195.51-548.82-365.42-591.19-545.36C276.85,1165.52,795.58,839,2706.79,322,3127.77,208.15,3457.93,101,3709.7,0Z" />
    <path
        d="M3616.17,0c-238.77,89.86-536.56,184.84-901.06,285.29C781,818.3,249.84,1142.42,319.4,1431.46c42.2,175.35,305.54,338,610.87,526.6,156.69,96.78,324.43,200.39,479.06,316.08,238.86,178.71,446.28,386.25,533.33,641.86h-1.37c-87-255.2-294.19-462.43-532.71-640.89-154.58-115.65-322.31-219.25-479-316-305.54-188.72-569.07-351.5-611.38-527.31C248.48,1142,779.82,817.38,2714.83,284.13c363-100,659.64-194.63,897.7-284.13Z" />
    <path
        d="M3512.71,0c-219.05,78.39-480.64,160.76-789.55,247.4C764.9,796.59,221.2,1119.31,290,1399.36c42.08,171.31,313.41,326.88,630.33,508.6,190.83,109.42,398.19,228.31,582,365.86C1738.62,2450.6,1936,2658.18,2009.66,2916h-1.36c-73.65-257.41-270.76-464.68-506.69-641.2-183.79-137.52-391.12-256.39-581.92-365.79C602.54,1727.16,331,1571.48,288.82,1399.69c-69-280.79,474.9-604,2434-1153.45C3030.29,160,3290.74,78,3509,0Z" />
</svg>