<svg width="586" height="556" xmlns="http://www.w3.org/2000/svg" xmlns:xlink="http://www.w3.org/1999/xlink" overflow="hidden"><defs><clipPath id="clip0"><rect x="347" y="82" width="586" height="556"/></clipPath></defs><g clip-path="url(#clip0)" transform="translate(-347 -82)"><path d="M787.812 81.9914C787.205 81.9914 786.557 82.0319 785.909 82.0724L726.168 89.323C714.107 90.7409 705.444 101.839 706.902 113.91 707.792 125.09 717.789 133.353 728.839 133.353 729.689 133.353 730.58 133.313 731.47 133.191L736.287 132.705 736.287 132.705C663.511 217.607 576.287 261.962 514.602 283.674 437.982 311.137 378.725 313.568 377.754 313.568 365.693 314.054 356.059 323.694 357.031 335.765 357.517 347.796 367.15 356.991 378.725 356.991L379.171 356.991C381.599 356.991 444.741 354.561 528.567 325.153 575.315 308.261 619.677 286.55 659.18 259.532 662.054 257.142 663.511 252.808 661.123 249.891 659.626 247.785 657.359 246.651 655.173 246.651 653.838 246.651 652.543 247.056 651.45 247.987 612.432 274.519 569.527 296.19 523.75 312.596 442.313 341.558 381.599 343.948 378.725 343.948 374.354 343.948 370.51 340.1 370.51 335.765 370.51 331.877 373.869 328.029 378.725 327.543 379.171 327.543 440.41 325.153 519.419 296.677 585.92 273.061 680.876 224.332 758.467 127.885 762.191 123.227 758.71 116.3 753.205 116.3 753.043 116.3 752.841 116.3 752.679 116.3L730.499 119.703C730.175 119.743 729.851 119.743 729.527 119.743 725.925 119.743 722.282 117.394 721.837 113.424 720.865 108.604 723.739 104.27 728.556 103.784L788.338 96.5333C788.621 96.4928 788.945 96.4928 789.228 96.4928 793.64 96.4928 797 99.7334 797 104.27L797 164.058C797 168.392 793.64 171.794 789.309 171.794 784.978 171.794 781.578 168.392 781.578 164.058L781.578 146.235C781.578 142.832 779.677 140.442 777.248 139.47 776.439 139.065 775.67 138.903 774.901 138.903 772.836 138.903 770.934 140.118 769.558 141.86 743.532 173.698 713.621 202.66 680.876 228.22 677.962 230.61 677.476 234.458 679.905 237.861 681.281 239.481 683.102 240.372 685.045 240.372 686.542 240.372 688.08 239.846 689.537 238.833 717.506 217.121 743.977 192.534 767.615 165.516 768.101 176.615 777.734 186.255 789.309 186.255 801.331 186.255 810.963 176.615 810.963 164.544L810.963 105.201C810.963 97.9915 808.091 91.713 803.274 87.3788 798.943 83.8952 793.438 81.9914 787.812 81.9914Z" fill="#3EB7EC" fill-rule="evenodd"/><path d="M809.341 465.991C786.75 465.991 765.503 474.836 749.485 490.727 748.398 491.821 748.398 493.825 749.485 495.141 750.037 495.697 750.81 495.975 751.602 495.975 752.393 495.975 753.222 495.697 753.867 495.141 768.78 480.344 788.518 471.962 809.341 471.962 830.166 471.962 849.885 480.344 864.578 495.141 879.492 510.16 887.593 530.02 887.593 550.992 887.593 571.963 879.492 591.841 864.578 606.638 849.351 621.974 829.282 629.651 809.232 629.651 789.162 629.651 769.112 621.974 753.867 606.638 740.941 593.603 733.042 576.599 731.514 558.279 729.766 540.404 734.368 522.306 744.237 507.286 745.103 505.951 744.881 503.967 743.575 502.874 743.022 502.557 742.451 502.409 741.899 502.409 740.886 502.409 739.892 502.891 739.192 503.745 728.44 519.654 723.413 539.292 725.383 558.947 727.354 578.602 735.896 597.367 749.705 611.052 766.148 627.61 787.855 635.991 809.563 635.991 831.252 635.991 852.739 627.61 869.181 611.052 885.181 595.161 893.964 573.521 893.964 550.992 893.964 528.258 885.181 506.841 868.96 490.727 853.181 474.836 831.694 465.991 809.341 465.991Z" stroke="#3EB7EC" stroke-width="2" stroke-linejoin="round" stroke-miterlimit="10" fill="#3EB7EC" fill-rule="evenodd"/><path d="M808.991 488.848C824.877 488.848 841.209 495 853.351 507.267 877.857 531.838 877.857 571.31 853.351 595.641 841.098 607.817 825.045 613.913 808.954 613.913 792.883 613.913 776.755 607.817 764.41 595.641 739.903 571.31 739.903 531.838 764.41 507.267 776.551 495.203 792.883 488.848 808.991 488.848ZM809.047 482.991C791.325 482.991 773.566 489.622 759.997 502.884 733.286 529.647 733.286 573.06 759.997 600.044 773.678 613.417 791.103 619.991 808.991 619.991 826.639 619.991 844.082 613.417 857.763 600.044 884.697 573.06 884.697 529.867 857.763 502.884 844.416 489.622 826.75 482.991 809.047 482.991Z" stroke="#3EB7EC" stroke-width="2" stroke-linejoin="round" stroke-miterlimit="10" fill="#3EB7EC" fill-rule="evenodd"/><path d="M846.75 428.991C824.887 428.991 803.024 437.249 786.422 453.745 784.433 455.722 782.667 457.92 780.677 460.118 779.562 461.43 779.785 463.425 781.124 464.515 781.756 464.977 782.444 465.198 783.113 465.198 784.024 465.198 784.898 464.755 785.549 463.85 787.315 462.095 788.858 460.118 790.866 458.142 806.241 442.846 826.486 435.216 846.75 435.216 866.996 435.216 887.261 442.846 902.636 458.142 933.404 488.715 933.404 538.648 902.636 569.221 900.646 571.198 898.88 572.731 896.891 574.486 895.552 575.594 895.106 577.571 896.221 578.883 896.891 579.769 897.765 579.991 898.88 579.991 899.549 579.991 900.2 579.769 900.646 579.104 902.859 577.571 905.071 575.594 907.061 573.396 940.264 540.403 940.264 486.738 907.061 453.745 890.458 437.249 868.613 428.991 846.75 428.991Z" stroke="#3EB7EC" stroke-width="2" stroke-linejoin="round" stroke-miterlimit="10" fill="#3EB7EC" fill-rule="evenodd"/><path d="M909.108 492.992C908.948 492.992 908.771 492.992 908.593 493.009 907.12 493.664 906.268 495.176 906.482 496.924 911.344 514.042 908.593 532.033 899.313 547.002 898.674 548.295 898.887 550.261 900.147 551.336 900.786 551.555 901.212 551.992 901.62 551.992 902.897 551.992 903.537 551.336 904.157 550.48 914.733 534.219 917.678 514.26 912.408 495.176 911.841 493.829 910.58 492.992 909.108 492.992Z" stroke="#3EB7EC" stroke-width="2" stroke-linejoin="round" stroke-miterlimit="10" fill="#3EB7EC" fill-rule="evenodd"/><path d="M847.708 444.991C834.535 444.991 821.512 448.767 810.414 455.912 809.08 456.801 808.413 458.559 809.525 460.318 810.099 461.169 811.136 461.761 812.211 461.761 812.804 461.761 813.397 461.595 813.933 461.206 823.994 454.876 835.795 451.359 847.745 451.359 849.931 451.359 852.117 451.488 854.302 451.729 868.643 453.043 882.092 459.651 892.023 469.573 896.654 474.422 900.619 479.494 903.268 485.436 903.936 486.547 905.028 486.991 906.14 486.991 906.585 486.991 907.029 486.991 907.455 486.769 908.789 485.658 909.438 483.9 908.567 482.363 905.25 475.959 901.063 470.239 896.209 465.389 885.187 454.376 870.18 447.101 854.526 445.324 852.247 445.102 849.968 444.991 847.708 444.991Z" stroke="#3EB7EC" stroke-width="2" stroke-linejoin="round" stroke-miterlimit="10" fill="#3EB7EC" fill-rule="evenodd"/><path d="M805.665 523.561 805.665 548.463C798.18 547.371 792.692 542.17 792.692 535.894 792.692 529.619 798.18 524.852 805.665 523.561ZM812.04 554.956C819.303 556.03 824.809 561.014 824.809 567.308 824.809 573.365 819.081 578.349 812.04 579.422L812.04 554.956ZM808.972 510.991C807.199 510.991 805.886 512.284 805.886 514.03L805.886 517.486C795.113 518.796 786.963 526.799 786.963 535.894 786.963 545.207 795.113 553.228 805.886 554.302L805.886 579.422C798.402 578.349 792.914 573.365 792.914 567.089 792.914 565.344 791.583 564.052 790.05 564.052 788.276 564.052 786.963 565.344 786.963 567.089 786.963 576.621 795.113 584.406 805.886 585.497L805.886 588.953C805.886 590.482 807.199 591.992 808.972 591.992 810.506 591.992 812.04 590.482 812.04 588.953L812.04 585.497C822.61 584.188 830.964 576.184 830.964 567.089 830.964 557.776 822.61 549.973 812.04 548.682L812.04 523.561C819.303 524.634 824.809 529.619 824.809 535.894 824.809 537.622 826.344 538.932 827.895 538.932 829.429 538.932 830.964 537.622 830.964 535.894 830.964 526.362 822.61 518.578 811.819 517.486L811.819 514.03C811.819 512.284 810.506 510.991 808.972 510.991Z" stroke="#FFDF5C" stroke-width="2" stroke-linejoin="round" stroke-miterlimit="10" fill="#FFDF5C" fill-rule="evenodd"/><path d="M416.367 394.56 416.367 544.532 476.633 544.532 476.633 394.56ZM558.069 356.976 558.069 544.532 618.297 544.532 618.297 356.976ZM692.042 260.991 766.719 260.991C770.563 260.991 773.963 264.838 773.963 268.241L773.963 475.311 768.441 477.948C766.013 479.256 763.656 480.677 761.377 482.204L759.959 483.256 759.959 274.964 699.732 274.964 699.732 544.532 724.432 544.532 723.607 552.646 724.252 558.991 355.169 558.991C350.837 558.991 347.963 556.115 347.963 551.782 347.963 547.448 351.323 544.532 355.169 544.532L400.459 544.532 400.459 387.837C400.459 383.463 403.859 380.588 407.704 380.588L482.382 380.588C486.266 380.588 489.626 383.949 489.626 387.837L489.626 544.532 542.648 544.532 542.648 350.213C542.648 346.365 546.007 342.963 549.853 342.963L624.57 342.963C628.416 342.963 631.774 346.851 631.774 350.213L631.774 544.532 684.797 544.532 684.797 268.241C684.797 264.393 688.156 260.991 692.042 260.991Z" fill="#3EB7EC" fill-rule="evenodd"/></g></svg>