<svg width="586" height="557" xmlns="http://www.w3.org/2000/svg" xmlns:xlink="http://www.w3.org/1999/xlink" overflow="hidden"><g transform="translate(-348 -82)"><path d="M788.807 83C788.2 83 787.552 83.0405 786.904 83.081L727.161 90.3317C715.099 91.7495 706.436 102.848 707.894 114.919 708.784 126.099 718.782 134.362 729.832 134.362 730.682 134.362 731.573 134.322 732.463 134.2L737.28 133.714 737.28 133.714C664.502 218.616 577.275 262.971 515.588 284.683 438.966 312.146 379.707 314.577 378.736 314.577 366.674 315.063 357.04 324.703 358.012 336.774 358.498 348.805 368.131 358 379.707 358L380.153 358C382.581 358 445.725 355.57 529.553 326.162 576.303 309.27 620.666 287.559 660.171 260.541 663.045 258.151 664.502 253.817 662.114 250.9 660.617 248.794 658.35 247.66 656.164 247.66 654.828 247.66 653.533 248.065 652.44 248.996 613.421 275.528 570.515 297.199 524.736 313.605 443.297 342.567 382.581 344.957 379.707 344.957 375.336 344.957 371.491 341.109 371.491 336.774 371.491 332.886 374.85 329.038 379.707 328.552 380.153 328.552 441.394 326.162 520.405 297.686 586.908 274.07 681.867 225.341 759.461 128.894 763.185 124.236 759.704 117.309 754.199 117.309 754.037 117.309 753.835 117.309 753.673 117.309L731.492 120.712C731.168 120.752 730.844 120.752 730.52 120.752 726.918 120.752 723.275 118.403 722.83 114.433 721.858 109.613 724.732 105.279 729.549 104.793L789.333 97.5419C789.616 97.5014 789.94 97.5014 790.223 97.5014 794.635 97.5014 797.995 100.742 797.995 105.279L797.995 165.067C797.995 169.401 794.635 172.803 790.304 172.803 785.973 172.803 782.573 169.401 782.573 165.067L782.573 147.244C782.573 143.841 780.671 141.451 778.242 140.479 777.433 140.074 776.664 139.912 775.895 139.912 773.83 139.912 771.928 141.127 770.552 142.869 744.525 174.707 714.613 203.669 681.867 229.229 678.953 231.619 678.467 235.467 680.896 238.87 682.272 240.49 684.093 241.381 686.036 241.381 687.534 241.381 689.072 240.855 690.529 239.842 718.499 218.13 744.97 193.543 768.609 166.525 769.095 177.624 778.728 187.264 790.304 187.264 802.326 187.264 811.959 177.624 811.959 165.553L811.959 106.21C811.959 99.0001 809.086 92.7216 804.269 88.3874 799.938 84.9038 794.433 83 788.807 83Z" fill="#657E93" fill-rule="evenodd"/><path d="M810.164 467C787.516 467 766.215 475.844 750.156 491.733 749.067 492.827 749.067 494.83 750.156 496.146 750.71 496.702 751.485 496.98 752.279 496.98 753.072 496.98 753.903 496.702 754.549 496.146 769.5 481.351 789.288 472.97 810.164 472.97 831.041 472.97 850.81 481.351 865.54 496.146 880.492 511.164 888.613 531.021 888.613 551.991 888.613 572.96 880.492 592.836 865.54 607.631 850.275 622.965 830.155 630.641 810.054 630.641 789.934 630.641 769.833 622.965 754.549 607.631 741.591 594.597 733.672 577.595 732.14 559.277 730.387 541.404 735.001 523.308 744.895 508.29 745.763 506.955 745.541 504.971 744.231 503.878 743.677 503.562 743.105 503.414 742.551 503.414 741.536 503.414 740.539 503.896 739.837 504.749 729.058 520.657 724.018 540.292 725.994 559.945 727.969 579.598 736.533 598.361 750.377 612.044 766.861 628.601 788.623 636.981 810.386 636.981 832.13 636.981 853.671 628.601 870.155 612.044 886.195 596.155 895 574.518 895 551.991 895 529.26 886.195 507.845 869.933 491.733 854.114 475.844 832.573 467 810.164 467Z" stroke="#657E93" stroke-width="2" stroke-linejoin="round" stroke-miterlimit="10" fill="#657E93" fill-rule="evenodd"/><path d="M810.009 488.917C825.955 488.917 842.348 495.112 854.536 507.465 879.134 532.209 879.134 571.958 854.536 596.46 842.237 608.721 826.123 614.86 809.972 614.86 793.84 614.86 777.652 608.721 765.26 596.46 740.661 571.958 740.661 532.209 765.26 507.465 777.447 495.316 793.84 488.917 810.009 488.917ZM810.065 483.019C792.277 483.019 774.451 489.696 760.831 503.051 734.019 530.002 734.019 573.72 760.831 600.894 774.563 614.36 792.054 620.981 810.009 620.981 827.723 620.981 845.232 614.36 858.964 600.894 886 573.72 886 530.224 858.964 503.051 845.567 489.696 827.835 483.019 810.065 483.019Z" stroke="#657E93" stroke-width="2" stroke-linejoin="round" stroke-miterlimit="10" fill="#657E93" fill-rule="evenodd"/><path d="M847.887 430C826.122 430 804.357 438.258 787.829 454.754 785.849 456.731 784.091 458.929 782.11 461.127 781 462.439 781.222 464.434 782.555 465.524 783.184 465.986 783.869 466.207 784.535 466.207 785.442 466.207 786.312 465.764 786.96 464.859 788.718 463.104 790.254 461.127 792.253 459.151 807.559 443.855 827.714 436.225 847.887 436.225 868.042 436.225 888.216 443.855 903.522 459.151 934.152 489.724 934.152 539.657 903.522 570.23 901.541 572.207 899.783 573.74 897.803 575.495 896.47 576.603 896.026 578.58 897.136 579.892 897.803 580.778 898.673 581 899.783 581 900.449 581 901.097 580.778 901.541 580.113 903.744 578.58 905.946 576.603 907.927 574.405 940.982 541.412 940.982 487.747 907.927 454.754 891.399 438.258 869.652 430 847.887 430Z" stroke="#657E93" stroke-width="2" stroke-linejoin="round" stroke-miterlimit="10" fill="#657E93" fill-rule="evenodd"/><path d="M910.43 493.019C910.27 493.019 910.093 493.019 909.916 493.037 908.446 493.703 907.596 495.24 907.809 497.017 912.661 514.419 909.916 532.71 900.655 547.927 900.018 549.242 900.23 551.241 901.487 552.334 902.125 552.556 902.55 553 902.957 553 904.232 553 904.87 552.334 905.489 551.463 916.043 534.932 918.982 514.641 913.723 495.24 913.157 493.87 911.899 493.019 910.43 493.019Z" stroke="#657E93" stroke-width="2" stroke-linejoin="round" stroke-miterlimit="10" fill="#657E93" fill-rule="evenodd"/><path d="M848.278 446C835.111 446 822.093 449.776 811 456.921 809.667 457.81 809 459.568 810.111 461.327 810.685 462.178 811.722 462.77 812.796 462.77 813.389 462.77 813.982 462.604 814.518 462.215 824.574 455.885 836.37 452.368 848.315 452.368 850.5 452.368 852.685 452.497 854.87 452.738 869.204 454.052 882.648 460.66 892.574 470.582 897.204 475.431 901.167 480.503 903.815 486.445 904.482 487.556 905.574 488 906.685 488 907.13 488 907.574 488 908 487.778 909.333 486.667 909.982 484.909 909.111 483.372 905.796 476.968 901.611 471.248 896.759 466.398 885.741 455.385 870.741 448.11 855.093 446.333 852.815 446.111 850.537 446 848.278 446Z" stroke="#657E93" stroke-width="2" stroke-linejoin="round" stroke-miterlimit="10" fill="#657E93" fill-rule="evenodd"/><path d="M806.694 523.74 806.694 548.944C799.212 547.839 793.726 542.574 793.726 536.222 793.726 529.871 799.212 525.047 806.694 523.74ZM813.066 555.516C820.326 556.603 825.83 561.647 825.83 568.017 825.83 574.148 820.104 579.192 813.066 580.278L813.066 555.516ZM810 511.018C808.227 511.018 806.915 512.326 806.915 514.093L806.915 517.591C796.146 518.917 788 527.017 788 536.222 788 545.648 796.146 553.767 806.915 554.854L806.915 580.278C799.434 579.192 793.948 574.148 793.948 567.796 793.948 566.029 792.618 564.722 791.085 564.722 789.312 564.722 788 566.029 788 567.796 788 577.443 796.146 585.323 806.915 586.427L806.915 589.925C806.915 591.472 808.227 593 810 593 811.533 593 813.066 591.472 813.066 589.925L813.066 586.427C823.632 585.102 831.982 577.001 831.982 567.796 831.982 558.37 823.632 550.472 813.066 549.165L813.066 523.74C820.326 524.826 825.83 529.871 825.83 536.222 825.83 537.971 827.364 539.297 828.915 539.297 830.448 539.297 831.982 537.971 831.982 536.222 831.982 526.575 823.632 518.696 812.845 517.591L812.845 514.093C812.845 512.326 811.533 511.018 810 511.018Z" stroke="#657E93" stroke-width="2" stroke-linejoin="round" stroke-miterlimit="10" fill="#657E93" fill-rule="evenodd"/><path d="M417.403 395.569 417.403 545.541 477.67 545.541 477.67 395.569ZM559.106 357.985 559.106 545.541 619.333 545.541 619.333 357.985ZM693.078 262 767.755 262C771.6 262 775 265.847 775 269.25L775 476.32 769.478 478.957C767.05 480.265 764.693 481.686 762.414 483.213L760.996 484.265 760.996 275.973 700.769 275.973 700.769 545.541 725.468 545.541 724.643 553.655 725.288 560 356.205 560C351.874 560 349 557.124 349 552.791 349 548.457 352.359 545.541 356.205 545.541L401.496 545.541 401.496 388.846C401.496 384.472 404.896 381.597 408.741 381.597L483.418 381.597C487.303 381.597 490.663 384.958 490.663 388.846L490.663 545.541 543.685 545.541 543.685 351.222C543.685 347.374 547.044 343.972 550.89 343.972L625.607 343.972C629.452 343.972 632.811 347.86 632.811 351.222L632.811 545.541 685.833 545.541 685.833 269.25C685.833 265.402 689.193 262 693.078 262Z" fill="#657E93" fill-rule="evenodd"/></g></svg>